<?xml version="1.0" encoding="UTF-8"?>
<svg width="35px" height="35px" viewBox="0 0 35 35" version="1.1" xmlns="http://www.w3.org/2000/svg" xmlns:xlink="http://www.w3.org/1999/xlink">
    <!-- Generator: Sketch 47.1 (45422) - http://www.bohemiancoding.com/sketch -->
    <title>Indeterminate_Spinner_</title>
    <desc>Created with Sketch.</desc>
    <defs></defs>
    <g id="Symbols" stroke="none" stroke-width="1" fill="none" fill-rule="evenodd">
        <g id="Controls/Progress-Indicator/Light-Indetermined-Spinner" fill="">
            <path d="M4.1155,8.2755 L10.29,11.8405 C10.7011194,12.0670378 10.9576815,12.4981005 10.9607693,12.9674926 C10.9638571,13.4368848 10.7129883,13.8712855 10.3048848,14.1032124 C9.89678136,14.3351393 9.39519063,14.3283645 8.9935,14.0855 L2.819,10.521 C2.2055361,10.1599535 1.99788938,9.37182734 2.35381341,8.75537735 C2.70973744,8.13892736 3.4961067,7.92472309 4.1155,8.2755 Z M26.25,2.3445 C26.8700564,2.70253496 27.0824919,3.49541879 26.7245,4.1155 L23.1595,10.29 C22.9329622,10.7011194 22.5018995,10.9576815 22.0325074,10.9607693 C21.5631152,10.9638571 21.1287145,10.7129883 20.8967876,10.3048848 C20.6648607,9.89678136 20.6716355,9.39519063 20.9145,8.9935 L24.4795,2.819 C24.8375211,2.19924357 25.6300303,1.98684842 26.25,2.3445 L26.25,2.3445 Z M26.0065,20.9145 L32.181,24.4795 C32.5921194,24.7060378 32.8486815,25.1371005 32.8517693,25.6064926 C32.8548571,26.0758848 32.6039883,26.5102855 32.1958848,26.7422124 C31.7877814,26.9741393 31.2861906,26.9673645 30.8845,26.7245 L24.71,23.1595 C24.2988806,22.9329622 24.0423185,22.5018995 24.0392307,22.0325074 C24.0361429,21.5631152 24.2870117,21.1287145 24.6951152,20.8967876 C25.1032186,20.6648607 25.6048094,20.6716355 26.0065,20.9145 L26.0065,20.9145 Z M13.611,24.236 C14.2310564,24.594035 14.4434919,25.3869188 14.0855,26.007 L10.5205,32.1815 C10.2909759,32.5867881 9.8616902,32.8378135 9.395924,32.8390974 C8.93015779,32.8403813 8.49949475,32.5917264 8.26773973,32.1877098 C8.0359847,31.7836932 8.03875617,31.2864083 8.275,30.885 L11.84,24.7105 C12.0118405,24.4126358 12.2950163,24.1952773 12.627179,24.1062817 C12.9593417,24.0172861 13.3132565,24.0639503 13.611,24.236 Z M10.521,2.819 L14.086,8.9935 C14.3288645,9.39519063 14.3356393,9.89678136 14.1037124,10.3048848 C13.8717855,10.7129883 13.4373848,10.9638571 12.9679926,10.9607693 C12.4986005,10.9576815 12.0675378,10.7011194 11.841,10.29 L8.2755,4.1155 C7.92472309,3.4961067 8.13892736,2.70973744 8.75537735,2.35381341 C9.37182734,1.99788938 10.1599535,2.2055361 10.521,2.819 Z M32.6555,8.75 C32.827391,9.04769845 32.8739664,9.40149227 32.784978,9.73353434 C32.6959896,10.0655764 32.4787286,10.3486612 32.181,10.5205 L26.0065,14.0855 C25.6048094,14.3283645 25.1032186,14.3351393 24.6951152,14.1032124 C24.2870117,13.8712855 24.0361429,13.4368848 24.0392307,12.9674926 C24.0423185,12.4981005 24.2988806,12.0670378 24.71,11.8405 L30.8845,8.2755 C31.5045812,7.91750807 32.297465,8.12994363 32.6555,8.75 L32.6555,8.75 Z M23.1595,24.7105 L26.7245,30.885 C26.9673645,31.2866906 26.9741393,31.7882814 26.7422124,32.1963848 C26.5102855,32.6044883 26.0758848,32.8553571 25.6064926,32.8522693 C25.1371005,32.8491815 24.7060378,32.5926194 24.4795,32.1815 L20.9145,26.007 C20.6716355,25.6053094 20.6648607,25.1037186 20.8967876,24.6956152 C21.1287145,24.2875117 21.5631152,24.0366429 22.0325074,24.0397307 C22.5018995,24.0428185 22.9329622,24.2993806 23.1595,24.7105 L23.1595,24.7105 Z M10.7645,21.389 C10.936391,21.6866984 10.9829664,22.0404923 10.893978,22.3725343 C10.8049896,22.7045764 10.5877286,22.9876612 10.29,23.1595 L4.1155,26.7245 C3.49725677,27.0651686 2.72008683,26.8486365 2.36707096,26.2373595 C2.01405509,25.6260825 2.2149358,24.8447208 2.819,24.4795 L8.9935,20.9145 C9.61358121,20.5565081 10.406465,20.7689436 10.7645,21.389 Z M1,16.203 L8.719,16.203 C9.27128475,16.203 9.719,16.6507153 9.719,17.203 L9.719,17.797 C9.719,18.3492847 9.27128475,18.797 8.719,18.797 L1,18.797 C0.44771525,18.797 6.76353751e-17,18.3492847 0,17.797 L0,17.203 C-6.76353751e-17,16.6507153 0.44771525,16.203 1,16.203 L1,16.203 Z M17.203,0 L17.797,0 C18.3492847,3.38176876e-17 18.797,0.44771525 18.797,1 L18.797,8.719 C18.797,9.27128475 18.3492847,9.719 17.797,9.719 L17.203,9.719 C16.6507153,9.719 16.203,9.27128475 16.203,8.719 L16.203,1 C16.203,0.44771525 16.6507153,1.01453063e-16 17.203,0 Z M26.2815,16.203 L34,16.203 C34.5522847,16.203 35,16.6507153 35,17.203 L35,17.797 C35,18.3492847 34.5522847,18.797 34,18.797 L26.2815,18.797 C25.7292153,18.797 25.2815,18.3492847 25.2815,17.797 L25.2815,17.203 C25.2815,16.6507153 25.7292153,16.203 26.2815,16.203 Z M17.203,25.2815 L17.797,25.2815 C18.3492847,25.2815 18.797,25.7292153 18.797,26.2815 L18.797,34 C18.797,34.5522847 18.3492847,35 17.797,35 L17.203,35 C16.6507153,35 16.203,34.5522847 16.203,34 L16.203,26.2815 C16.203,25.7292153 16.6507153,25.2815 17.203,25.2815 Z" id="Indeterminate_Spinner_"></path>
        </g>
    </g>
</svg>