<?xml version="1.0" encoding="UTF-8"?>
<svg width="13px" height="12px" viewBox="0 0 13 12" version="1.1" xmlns="http://www.w3.org/2000/svg" xmlns:xlink="http://www.w3.org/1999/xlink">
    <!-- Generator: Sketch 46.2 (44496) - http://www.bohemiancoding.com/sketch -->
    <title>Back_Arrow</title>
    <desc>Created with Sketch.</desc>
    <defs></defs>
    <g id="Symbols" stroke="none" stroke-width="1" fill="none" fill-rule="evenodd">
        <g id="Bars/Status-Bar/Dark-Status-Bar-with-Back" transform="translate(-4.000000, -4.000000)" fill="#FFFFFF">
            <g id="Left-Detail" transform="translate(4.000000, 3.000000)">
                <path d="M12.4960013,9.52378968 L12.4960013,9.92375635 C12.4960013,10.035747 12.4960013,10.1472377 12.491003,10.2592284 C12.488015,10.5036366 12.4666283,10.7474726 12.4270243,10.9886676 C12.3857911,11.2300527 12.3088033,11.4639386 12.1986005,11.6826098 C11.9749905,12.1218072 11.618028,12.4788589 11.1789404,12.7025248 C10.9604861,12.812722 10.7268284,12.8897286 10.4856714,12.9310057 C10.2443738,12.9706597 10.0004296,12.9920519 9.7559147,12.9950004 C9.64395202,12.9980002 9.53248917,12.9995 9.42052649,13 L9.02065978,13 L3.97234255,13 L3.57247584,13 C3.46051316,13 3.34905032,13 3.23708764,12.9950004 C2.99257278,12.9920519 2.74862855,12.9706597 2.50733089,12.9310057 C2.26617214,12.8897359 2.0325134,12.8127289 1.81406198,12.7025248 C1.37499475,12.4788308 1.01803996,12.1217868 0.794401866,11.6826098 C0.684192176,11.4639415 0.607203982,11.2300545 0.565978007,10.9886676 C0.526383464,10.7474714 0.504996817,10.5036361 0.501999334,10.2592284 C0.502999,10.1452379 0.5,10.0332472 0.5,9.92175652 L0.5,9.52178985 L0.5,4.47221065 L0.5,4.07224398 C0.5,3.96025331 0.5,3.8487626 0.504998334,3.73677194 C0.507995817,3.49236422 0.529382464,3.24852892 0.568977008,3.00733272 C0.611472076,2.7675277 0.689293242,2.53535373 0.799900033,2.31839013 C1.02356624,1.87923357 1.38051334,1.52219725 1.81956015,1.29847513 C2.03801442,1.18827795 2.27167211,1.11127127 2.51282906,1.06999417 C2.75412884,1.0303572 2.9980718,1.00896508 3.2425858,1.0059995 C3.35304898,1.00299975 3.46501166,1 3.57647451,1 L3.97634122,1 L9.02465845,1 L9.42452516,1 C9.53648784,1 9.64795068,1 9.75991336,1.00499958 C10.0044274,1.00796516 10.2483703,1.02935729 10.4896701,1.06899425 C10.7308253,1.1102786 10.9644819,1.18728493 11.182939,1.29747521 C11.6220063,1.52116921 11.978961,1.87821323 12.2025991,2.31739022 C12.3128019,2.53606139 12.3897898,2.76994726 12.431023,3.01133239 C12.4706269,3.25252741 12.4920136,3.49636342 12.4950017,3.7407716 C12.4980007,3.85226231 12.4995002,3.96425298 12.5,4.07624365 L12.5,4.47621032 L12.5,9.52578952 L12.4960013,9.52378968 Z M7.38370543,3.10882426 L3.49900033,6.99950004 L7.3592136,10.8561787 L8.38187271,9.8872594 L5.49833389,6.99950004 L8.41986005,4.07224398 L7.38370543,3.10882426 Z" id="Back_Arrow"></path>
            </g>
        </g>
    </g>
</svg>