<?xml version="1.0" encoding="UTF-8"?>
<svg width="14px" height="10px" viewBox="0 0 14 10" version="1.1" xmlns="http://www.w3.org/2000/svg" xmlns:xlink="http://www.w3.org/1999/xlink">
    <!-- Generator: Sketch 47.1 (45422) - http://www.bohemiancoding.com/sketch -->
    <title>Wifi</title>
    <desc>Created with Sketch.</desc>
    <defs></defs>
    <g id="Page-1" stroke="none" stroke-width="1" fill="none" fill-rule="evenodd">
        <path d="M9.3093762,7.70944924 L7.0242729,10 L4.6955625,7.67257522 C5.2530794,7.03492681 6.0727771,6.63212435 6.9866063,6.63212435 C7.9179279,6.63212435 8.7514796,7.05049506 9.3093762,7.70944924 Z M6.9866063,3.31606218 C8.8323186,3.31606218 10.4943778,4.10193959 11.656073,5.35715828 L10.3389893,6.65999985 C9.4785374,5.70322843 8.3899885,5.23815918 7.0014895,5.23815918 C5.629581,5.23815918 4.5185855,5.72307857 3.6593018,6.65999985 L2.3469059,5.3252151 C3.5071361,4.08862104 5.1566009,3.31606218 6.9866063,3.31606218 Z M6.9866063,0 C9.7467676,0 12.2370314,1.15492968 14,3.0076437 L12.6800003,4.38000011 C11.2175507,2.82609274 9.2895413,1.96000004 6.9866063,1.96000004 C4.6984992,1.96000004 2.8808679,2.81358054 1.4199982,4.35000038 L0,2.97960479 C1.7613611,1.1432845 4.2403957,0 6.9866063,0 Z" id="Wifi" fill="#FFFFFF" fill-rule="nonzero"></path>
    </g>
</svg>