<?xml version="1.0" encoding="UTF-8"?>
<svg width="14px" height="10px" viewBox="0 0 14 10" version="1.1" xmlns="http://www.w3.org/2000/svg" xmlns:xlink="http://www.w3.org/1999/xlink">
    <!-- Generator: Sketch 46.2 (44496) - http://www.bohemiancoding.com/sketch -->
    <title>Wifi</title>
    <desc>Created with Sketch.</desc>
    <defs></defs>
    <g id="Symbols" stroke="none" stroke-width="1" fill="none" fill-rule="evenodd">
        <g id="Bars/Status-Bar/Dark-Status-Bar" transform="translate(-25.000000, -5.000000)" fill="#FFFFFF">
            <g id="Left-Detail" transform="translate(7.000000, 5.000000)">
                <path d="M27.1444208,7.43850432 L25.0225391,9.5 L22.8601652,7.40531769 C23.3778594,6.83143413 24.1390073,6.46891192 24.987563,6.46891192 C25.8523616,6.46891192 26.626374,6.84544555 27.1444208,7.43850432 Z M29.3234964,5.32144245 L29.3234964,5.32144245 L28.2346215,6.37932931 C27.4356305,5.51823504 26.2768836,4.97668394 24.987563,4.97668394 C23.713648,4.97668394 22.567205,5.5053708 21.7692987,6.34859996 L20.6792698,5.29269359 C21.7566264,4.17975893 23.2882723,3.48445596 24.987563,3.48445596 C26.7014387,3.48445596 28.2447794,4.19174563 29.3234964,5.32144245 Z M31.5,3.20687933 L30.4118698,4.26404272 C29.0538809,2.86552609 27.1260026,1.99222798 24.987563,1.99222798 C22.8628921,1.99222798 20.9460798,2.85431655 19.5895579,4.23709441 L18.5,3.18164431 C20.1355496,1.52895605 22.4375103,0.5 24.987563,0.5 C27.5505699,0.5 29.8629578,1.53943672 31.5,3.20687933 Z" id="Wifi"></path>
            </g>
        </g>
    </g>
</svg>