<?xml version="1.0" encoding="UTF-8"?>
<svg width="17px" height="10px" viewBox="0 0 17 10" version="1.1" xmlns="http://www.w3.org/2000/svg" xmlns:xlink="http://www.w3.org/1999/xlink">
    <!-- Generator: Sketch 47.1 (45422) - http://www.bohemiancoding.com/sketch -->
    <title>Mobile-Signal</title>
    <desc>Created with Sketch.</desc>
    <defs></defs>
    <g id="Page-1" stroke="none" stroke-width="1" fill="none" fill-rule="evenodd">
        <path d="M14.5,0 L15.5,0 C16.0522847,-1.01453063e-16 16.5,0.44771525 16.5,1 L16.5,9 C16.5,9.55228475 16.0522847,10 15.5,10 L14.5,10 C13.9477153,10 13.5,9.55228475 13.5,9 L13.5,1 L13.5,1 C13.5,0.44771525 13.9477153,1.01453063e-16 14.5,0 Z M10,2 L11,2 C11.5522847,2 12,2.44771525 12,3 L12,9 C12,9.55228475 11.5522847,10 11,10 L10,10 C9.44771525,10 9,9.55228475 9,9 L9,3 C9,2.44771525 9.44771525,2 10,2 Z M5.5,4 L6.5,4 L6.5,4 C7.05228475,4 7.5,4.44771525 7.5,5 L7.5,9 C7.5,9.55228475 7.05228475,10 6.5,10 L5.5,10 C4.94771525,10 4.5,9.55228475 4.5,9 L4.5,5 C4.5,4.44771525 4.94771525,4 5.5,4 Z M1,5.5 L2,5.5 L2,5.5 C2.55228475,5.5 3,5.94771525 3,6.5 L3,9 C3,9.55228475 2.55228475,10 2,10 L1,10 C0.44771525,10 6.76353751e-17,9.55228475 0,9 L0,6.5 C-6.76353751e-17,5.94771525 0.44771525,5.5 1,5.5 L1,5.5 Z" id="Mobile-Signal" fill="#FFFFFF" fill-rule="nonzero"></path>
    </g>
</svg>