<?xml version="1.0" encoding="UTF-8"?>
<svg width="27px" height="12px" viewBox="0 0 27 12" version="1.1" xmlns="http://www.w3.org/2000/svg" xmlns:xlink="http://www.w3.org/1999/xlink">
    <!-- Generator: Sketch 47.1 (45422) - http://www.bohemiancoding.com/sketch -->
    <title>batteryDark</title>
    <desc>Created with Sketch.</desc>
    <defs></defs>
    <g id="Page-1" stroke="none" stroke-width="1" fill="none" fill-rule="evenodd">
        <g id="batteryDark" fill-rule="nonzero" fill="#FFFFFF">
            <path d="M25,4 C25.8626136,4.25789902 26.5,5.16748641 26.5,6.25 C26.5,7.33251359 25.8626136,8.24210098 25,8.5 L25,4 Z" id="connector" fill-opacity="0.5"></path>
            <rect id="fill" x="2" y="2.5" width="20" height="7.5" rx="1"></rect>
            <path d="M0,2.99532872 C0,1.61719672 1.12537944,0.5 2.50050165,0.5 L21.4994984,0.5 C22.8804873,0.5 24,1.62360706 24,2.99532872 L24,9.50467128 C24,10.8828033 22.885738,12 21.4950088,12 L22.6526315,12 C21.2691631,12 19.035717,12 17.6569367,12 L2.49070357,12 C1.11512597,12 0,10.8763929 0,9.50467128 L0,2.99532872 Z M2.5,1.5 C1.67157288,1.5 1,2.17157288 1,3 L1,9.5 C1,10.3284271 1.67157288,11 2.5,11 L21.5,11 C22.3284271,11 23,10.3284271 23,9.5 L23,3 C23,2.17157288 22.3284271,1.5 21.5,1.5 L2.5,1.5 Z" id="border" fill-opacity="0.4"></path>
        </g>
    </g>
</svg>