<?xml version="1.0" encoding="UTF-8"?>
<svg width="24px" height="18px" viewBox="0 0 24 18" version="1.1" xmlns="http://www.w3.org/2000/svg" xmlns:xlink="http://www.w3.org/1999/xlink">
    <!-- Generator: Sketch 47.1 (45422) - http://www.bohemiancoding.com/sketch -->
    <title>Delete</title>
    <desc>Created with Sketch.</desc>
    <defs></defs>
    <g id="UI-Elements" stroke="none" stroke-width="1" fill="none" fill-rule="evenodd">
        <g id="UI-Elements---System" transform="translate(-1111.000000, -1431.000000)" fill-rule="nonzero" fill="#FFFFFF">
            <g id="Keyboard-Numberic-Dark" transform="translate(810.000000, 800.000000)">
                <g id="Keyboard-Numberic" transform="translate(0.000000, 451.000000)">
                    <path d="M308.951906,194.9826 C309.045656,195.078655 309.140322,195.172547 309.290628,195.319475 C309.366026,195.396711 309.442198,195.471227 309.547543,195.572349 C309.57666,195.59882 309.582837,195.605255 309.650695,195.677071 C309.673533,195.701241 309.691005,195.71946 309.700114,195.728428 C309.908118,195.936009 310.147295,196.109796 310.407578,196.242782 C310.671543,196.376889 310.954428,196.469927 311.246072,196.518616 C311.571904,196.572821 311.901394,196.602103 312.242194,196.606418 C312.341892,196.609173 312.385352,196.610328 312.43937,196.611584 C312.548156,196.614114 312.638259,196.615385 312.723846,196.615385 L318.615385,196.615385 L318.615385,198 L318.613538,197.307692 L318.613538,196.615385 L319.208462,196.615385 C319.339244,196.615385 319.446919,196.613148 319.699763,196.606207 C320.030861,196.60212 320.361168,196.572827 320.687204,196.518686 C320.978043,196.47012 321.259712,196.377234 321.523542,196.242681 C321.784984,196.109961 322.023746,195.936656 322.229329,195.730839 C322.437328,195.52121 322.61218,195.281119 322.743746,195.026923 C322.877455,194.759926 322.971247,194.474748 323.021005,194.187161 C323.074156,193.860854 323.102945,193.531043 323.107383,193.188658 C323.112705,193.009644 323.115385,192.854209 323.115385,192.706154 L323.115385,185.59038 C323.115385,185.442113 323.115385,185.442113 323.115451,185.303461 C323.114613,185.239949 323.114613,185.239949 323.113875,185.177317 C323.111703,184.993019 323.110388,184.912441 323.107132,184.799538 C323.102945,184.468957 323.074156,184.139146 323.022122,183.819492 C322.971247,183.525252 322.877455,183.240074 322.746674,182.978856 C322.612724,182.717516 322.438795,182.478691 322.230949,182.270789 C322.023746,182.063344 321.784984,181.890039 321.522388,181.756731 C321.259712,181.622766 320.978043,181.52988 320.683537,181.480692 C320.360001,181.424877 320.032414,181.395826 319.689084,181.393579 C319.446919,181.386852 319.339244,181.384615 319.208462,181.384615 L312.722,181.384615 C312.636413,181.384615 312.54631,181.385886 312.437524,181.388416 C312.383506,181.389672 312.340046,181.390827 312.22548,181.393833 C311.897991,181.395843 311.571228,181.424883 311.244617,181.481318 C310.952582,181.530073 310.669697,181.623111 310.407135,181.756503 C310.145449,181.890204 309.906272,182.063991 309.684306,182.285119 C309.610594,182.364006 309.581289,182.39489 309.555999,182.418965 C309.455879,182.513417 309.369968,182.59736 309.27684,182.692464 C309.125703,182.839915 309.041095,182.923745 308.944249,183.023283 L306.608972,185.359499 C306.571137,185.390622 306.556085,185.405403 306.539485,185.421797 C306.512625,185.448374 306.512625,185.448374 306.484967,185.475842 C306.36817,185.590019 306.320684,185.637256 306.26014,185.700469 L304.190627,187.768543 C304.169515,187.789322 304.169515,187.789322 304.147138,187.811711 C304.124178,187.834817 304.124178,187.834817 304.100115,187.859201 C304.050426,187.909651 304.025109,187.935235 303.998305,187.961843 C303.924416,188.035732 303.894055,188.066986 303.861021,188.104007 C303.6839,188.278086 303.550997,188.425013 303.428231,188.580234 L303.377688,188.637365 C303.347607,188.667808 303.322316,188.70256 303.302619,188.740427 C303.255175,188.909702 303.255037,189.08876 303.302205,189.258092 C303.324725,189.301382 303.353235,189.341348 303.386936,189.376791 C303.550749,189.573885 303.688703,189.725634 303.840401,189.876134 C303.861238,189.897339 303.861238,189.897339 303.881704,189.918196 C303.901689,189.938563 303.901689,189.938563 303.92137,189.958592 C303.961215,189.999057 303.976645,190.014651 303.998406,190.036418 C304.027827,190.06563 304.05176,190.089773 304.102077,190.140799 C304.15076,190.190158 304.170673,190.210246 304.197556,190.236947 L306.256358,192.298586 L306.4579,192.49546 L306.592476,192.628556 C306.616589,192.648473 306.639494,192.669857 306.661056,192.692597 L308.951906,194.9826 Z M312.867582,185.556048 C312.845491,185.522072 312.81958,185.489853 312.789846,185.46 L312.789846,185.46 C312.678551,185.347022 312.526589,185.283408 312.368,185.283408 C312.209411,185.283408 312.057449,185.347022 311.946154,185.46 C311.715527,185.691556 311.714835,186.065414 311.943699,186.297827 L311.932308,186.309231 L314.62561,188.996145 L312.034739,191.587401 C311.999428,191.610071 311.965983,191.636835 311.935077,191.667692 C311.703359,191.901552 311.703359,192.278448 311.935077,192.512308 C312.166759,192.74363 312.541164,192.744891 312.774405,192.51624 L312.784308,192.526154 L315.470766,189.839297 L318.159385,192.521538 L318.166171,192.514782 C318.3987,192.745879 318.774464,192.745533 319.006564,192.513743 C319.239012,192.281607 319.239517,191.905066 319.007692,191.672308 L319.007692,191.672308 C318.981067,191.645279 318.952114,191.621077 318.921299,191.599894 L316.313545,188.996392 L319.004923,186.304615 L318.998267,186.297952 C319.229569,186.064798 319.229034,185.688314 318.996663,185.455822 C318.763756,185.222794 318.386072,185.222598 318.152923,185.455385 L318.152923,185.455385 C318.128399,185.480135 318.10647,185.506488 318.087137,185.534104 L315.468703,188.152927 L312.867582,185.556048 Z M305.652254,193.646079 L305.487334,193.482953 L305.282752,193.283053 L303.219902,191.217428 C303.190481,191.188216 303.166548,191.164073 303.116231,191.113047 C303.067548,191.063688 303.047635,191.043601 303.02108,191.017228 C302.99441,190.990558 302.976656,190.972616 302.934075,190.92937 C302.873118,190.867276 302.873118,190.867276 302.859306,190.853137 C302.68536,190.680654 302.520188,190.499549 302.364414,190.310506 C302.221994,190.156259 302.105988,189.979494 302.021139,189.787322 L301.995568,189.720175 C301.844567,189.251931 301.844567,188.748069 301.995568,188.279825 L302.01926,188.216972 C302.102953,188.023892 302.219605,187.84697 302.363895,187.694078 C302.51333,187.507422 302.67403,187.330067 302.845099,187.163006 C302.893583,187.109435 302.936759,187.065247 303.020979,186.981033 C303.044456,186.957723 303.065074,186.936887 303.114269,186.886953 C303.139736,186.861144 303.139736,186.861144 303.166362,186.834347 C303.193572,186.807121 303.193572,186.807121 303.216936,186.784146 L305.269681,184.733065 C305.333679,184.665935 305.391274,184.608641 305.481731,184.520745 C305.5374,184.465472 305.5374,184.465472 305.566515,184.436664 C305.600529,184.40307 305.629758,184.374525 305.658709,184.346732 L307.958179,182.05131 C308.05907,181.947513 308.150542,181.856882 308.297987,181.713321 C308.393558,181.615419 308.492755,181.518496 308.603469,181.414058 C308.690653,181.320862 308.709258,181.301446 308.720194,181.291505 C309.030345,180.981985 309.386977,180.722854 309.778576,180.522782 C310.168138,180.324864 310.585623,180.187558 311.012713,180.116267 C311.410508,180.047517 311.813298,180.011721 312.202114,180.009495 C312.302761,180.006712 312.348606,180.005494 312.405332,180.004175 C312.524014,180.001415 312.624339,180 312.722,180 L319.208462,180 C319.356295,180 319.472604,180.002416 319.71251,180.009244 C320.116905,180.011698 320.520409,180.047482 320.915257,180.115609 C321.345743,180.187494 321.762657,180.324979 322.150304,180.522681 C322.542162,180.721607 322.900027,180.981363 323.210371,181.292069 C323.519892,181.601673 323.779179,181.957704 323.981793,182.353077 C324.176177,182.741234 324.312531,183.155823 324.38761,183.590238 C324.451807,183.984361 324.486579,184.382715 324.491387,184.770196 C324.494719,184.882295 324.496125,184.968466 324.498394,185.161 C324.499127,185.223128 324.499127,185.223128 324.5,185.293846 L324.5,192.706154 C324.5,192.869176 324.49709,193.037967 324.491637,193.218 C324.486579,193.617285 324.451807,194.015639 324.386493,194.416415 C324.312531,194.844177 324.176177,195.258766 323.977671,195.655019 C323.777372,196.042212 323.519257,196.396633 323.21059,196.707712 C322.900027,197.018637 322.542162,197.278393 322.151458,197.476731 C321.762657,197.675021 321.345743,197.812506 320.914643,197.884494 C320.518654,197.950252 320.118233,197.985762 319.727531,197.990502 C319.472604,197.997584 319.356295,198 319.208462,198 L318.613538,198 L318.613538,196.615385 L318.615385,197.307692 L318.615385,198 L312.723846,198 C312.626185,198 312.52586,197.998585 312.407178,197.995825 C312.350452,197.994506 312.304607,197.993288 312.214475,197.990716 C311.813812,197.985737 311.414113,197.950216 311.018459,197.884395 C310.587469,197.812442 310.169984,197.675136 309.779018,197.476503 C309.388823,197.277146 309.032191,197.018015 308.736001,196.722042 C308.711378,196.698813 308.697864,196.684721 308.644382,196.62812 C308.628104,196.610894 308.604449,196.586245 308.603199,196.584802 C308.474459,196.461606 308.388653,196.377665 308.311776,196.298618 C308.166002,196.1564 308.064272,196.055502 307.967025,195.955788 L305.72891,193.718573 L305.652254,193.646079 Z" id="Delete"></path>
                </g>
            </g>
        </g>
    </g>
</svg>