<?xml version="1.0" encoding="UTF-8"?>
<svg width="11px" height="20px" viewBox="0 0 11 20" version="1.1" xmlns="http://www.w3.org/2000/svg" xmlns:xlink="http://www.w3.org/1999/xlink">
    <!-- Generator: Sketch 47.1 (45422) - http://www.bohemiancoding.com/sketch -->
    <title>microophone glyph</title>
    <desc>Created with Sketch.</desc>
    <defs></defs>
    <g id="UI-Elements" stroke="none" stroke-width="1" fill="none" fill-rule="evenodd">
        <g id="UI-Elements---System" transform="translate(-128.000000, -1432.000000)" fill="#FFFFFF">
            <g id="Keyboard-Dark" transform="translate(20.000000, 800.000000)">
                <g id="Keyboard-Alphabetic" transform="translate(0.000000, 451.000000)">
                    <g id="row" transform="translate(5.000000, 170.000000)">
                        <g id="key" transform="translate(93.000000, 0.000000)">
                            <path d="M19.9995627,18 L19.9995627,19.6715 C20.0000627,20.24 20.0000627,20.7775 19.9685627,21.316 C19.9360627,21.8855 19.8670627,22.343 19.7520627,22.755 C19.4880627,23.7005 18.9415627,24.5105 18.1725627,25.0965 C17.4090627,25.679 16.4605627,26 15.5005627,26 C14.5400627,26 13.5910627,25.679 12.8280627,25.097 C12.0590627,24.5105 11.5125627,23.7005 11.2485627,22.7555 C11.1325627,22.342 11.0635627,21.885 11.0310627,21.3165 C11.0000627,20.7715 11.0000627,20.2285 11.0005627,19.654 L11.0005627,18 L10.0000627,18 L10.0000627,19.516 L10.0000627,19.522 C10.0000627,20.139 9.99706271,20.756 10.0325627,21.3735 C10.0645627,21.934 10.1330627,22.4805 10.2850627,23.0245 C10.6050627,24.1695 11.2735627,25.1695 12.2210627,25.892 C13.0300627,26.5095 13.9940627,26.8815 15.0000627,26.9745 L15.0000627,30 L12.0000627,30 L12.0000627,31 L19.0000627,31 L19.0000627,30 L16.0000627,30 L16.0000627,26.9745 C17.0055627,26.8815 17.9700627,26.5095 18.7790627,25.892 C19.7265627,25.1695 20.3950627,24.1695 20.7150627,23.0245 C20.8670627,22.4805 20.9355627,21.934 20.9675627,21.3735 C21.0030627,20.756 20.9995627,20.139 20.9995627,19.522 C20.9995627,19.52 21.0000627,19.518 21.0000627,19.516 L21.0000627,18 L19.9995627,18 Z M13.0005627,15.671 C13.0000627,15.3265 12.9995627,14.982 13.0195627,14.6375 C13.0385627,14.302 13.0785627,14.0355 13.1445627,13.7995 C13.2915627,13.274 13.5940627,12.825 14.0200627,12.5 C14.1245627,12.42 14.2380627,12.3475 14.3555627,12.2845 C14.4640627,12.2275 14.5830627,12.1765 14.7085627,12.1335 L14.7735627,12.11 C15.0035627,12.038 15.2500627,12 15.4995627,12 C15.7465627,12 15.9905627,12.0375 16.2265627,12.111 L16.2965627,12.135 C16.4150627,12.1755 16.5350627,12.227 16.6450627,12.2855 C16.7610627,12.3475 16.8745627,12.42 16.9790627,12.5 C17.4050627,12.8245 17.7080627,13.274 17.8550627,13.7995 C17.9210627,14.0365 17.9610627,14.303 17.9800627,14.638 C18.0000627,14.982 17.9990627,15.3265 17.9990627,15.671 L17.9990627,20.329 C17.9990627,20.674 18.0000627,21.018 17.9800627,21.3625 C17.9610627,21.6975 17.9210627,21.964 17.8545627,22.201 C17.7080627,22.7255 17.4050627,23.175 16.9790627,23.5 C16.5565627,23.8225 16.0310627,24 15.4995627,24 C14.9680627,24 14.4425627,23.8225 14.0200627,23.5 C13.5940627,23.175 13.2910627,22.7255 13.1450627,22.201 C13.0785627,21.9645 13.0385627,21.698 13.0195627,21.3625 C12.9995627,21.018 13.0000627,20.674 13.0005627,20.329 L13.0005627,15.671 Z M12.0205627,21.4195 C12.0410627,21.7765 12.0845627,22.124 12.1815627,22.47 C12.3850627,23.1985 12.8105627,23.835 13.4135627,24.295 C14.0130627,24.7525 14.7460627,25 15.5000627,25 C16.2535627,25 16.9870627,24.7525 17.5865627,24.295 C18.1895627,23.835 18.6150627,23.1985 18.8185627,22.47 C18.9155627,22.124 18.9585627,21.7765 18.9790627,21.4195 C19.0015627,21.0265 18.9995627,20.634 18.9995627,20.241 C18.9995627,20.24 19.0000627,20.239 19.0000627,20.2375 L19.0000627,15.7625 C19.0000627,15.761 18.9995627,15.7605 18.9995627,15.759 C18.9995627,15.366 19.0015627,14.9735 18.9790627,14.5805 C18.9585627,14.2235 18.9155627,13.876 18.8185627,13.53 C18.6150627,12.8015 18.1895627,12.165 17.5865627,11.705 C17.4365627,11.5905 17.2785627,11.4895 17.1135627,11.402 C16.9525627,11.3165 16.7850627,11.245 16.6135627,11.1865 C16.6090627,11.185 16.6050627,11.1825 16.6010627,11.181 C16.2485627,11.062 15.8765627,11 15.5000627,11 C15.1230627,11 14.7510627,11.062 14.3985627,11.181 C14.3940627,11.1825 14.3895627,11.1855 14.3845627,11.1875 C14.2135627,11.246 14.0465627,11.317 13.8860627,11.402 C13.7215627,11.4895 13.5635627,11.5905 13.4135627,11.705 C12.8105627,12.165 12.3850627,12.8015 12.1815627,13.53 C12.0845627,13.876 12.0410627,14.2235 12.0205627,14.5805 C11.9985627,14.9735 12.0000627,15.366 12.0000627,15.759 L12.0000627,15.762 L12.0000627,20.2375 L12.0000627,20.241 C12.0000627,20.634 11.9985627,21.0265 12.0205627,21.4195 L12.0205627,21.4195 Z" id="microophone-glyph"></path>
                        </g>
                    </g>
                </g>
            </g>
        </g>
    </g>
</svg>