<?xml version="1.0" encoding="UTF-8"?>
<svg width="24px" height="18px" viewBox="0 0 24 18" version="1.1" xmlns="http://www.w3.org/2000/svg" xmlns:xlink="http://www.w3.org/1999/xlink">
    <!-- Generator: Sketch 47.1 (45422) - http://www.bohemiancoding.com/sketch -->
    <title>Delete</title>
    <desc>Created with Sketch.</desc>
    <defs></defs>
    <g id="UI-Elements" stroke="none" stroke-width="1" fill="none" fill-rule="evenodd">
        <g id="UI-Elements---System" transform="translate(-1111.000000, -821.000000)" fill-rule="nonzero" fill="#000000">
            <g id="Keyboard-Numeric-Light" transform="translate(810.000000, 120.000000)">
                <g id="Keyboard-Numberic" transform="translate(0.000000, 521.000000)">
                    <g id="Keys" transform="translate(6.000000, 6.000000)">
                        <path d="M298.835632,178.301261 L298.838114,178.299324 C298.835113,178.301582 298.833029,178.30315 298.830446,178.305291 C298.83198,178.304092 298.833659,178.30279 298.835632,178.301261 Z M298.843666,187.701476 L298.840438,187.698983 C298.841102,187.699514 298.842217,187.700367 298.843666,187.701476 Z M301.087052,176.042042 C301.225985,175.902286 301.330027,175.798704 301.426902,175.704188 C301.523567,175.607184 301.623223,175.510128 301.731593,175.407369 C301.818947,175.314122 301.829413,175.303114 301.84371,175.289049 C302.152249,174.978809 302.508099,174.719534 302.900457,174.519647 C303.287027,174.324739 303.700301,174.188085 304.133672,174.112975 C304.5277,174.048849 304.925938,174.014003 305.318126,174.008853 C305.509106,174.004324 305.6756,174.002 305.829195,174.002033 C305.998612,174.000339 306.133602,174 306.432446,174 L313.127862,174 C313.428887,174 313.563005,174.000337 313.725113,174.002 C313.885694,174.002 314.052755,174.004339 314.233772,174.008723 C314.633602,174.013958 315.032495,174.048798 315.434026,174.114105 C315.860299,174.187962 316.273228,174.324766 316.659504,174.520145 C317.050971,174.718337 317.408103,174.978056 317.716342,175.288458 C318.024412,175.597452 318.282477,175.952542 318.483622,176.345623 C318.677803,176.732502 318.813764,177.145945 318.888008,177.577968 C318.952517,177.972634 318.987283,178.371588 318.991762,178.759476 C318.99342,178.815092 318.994729,178.872823 318.995811,178.935751 C318.996965,179.002859 318.997611,179.055156 318.998899,179.174905 C318.999437,179.224928 318.999437,179.224928 319.000057,179.282276 L319.000057,186.06968 L318.999974,186.68276 C318.999175,186.743846 318.999175,186.743846 318.998427,186.807115 C318.996132,187.001427 318.994714,187.088692 318.991678,187.187789 C318.986879,187.591236 318.951777,187.993753 318.885802,188.397111 C318.811968,188.82739 318.674827,189.244366 318.476669,189.638759 C318.27654,190.030054 318.016726,190.387815 317.706022,190.699733 C317.393952,191.012312 317.034074,191.273176 316.639686,191.472636 C316.250545,191.66925 315.834339,191.806926 315.399248,191.882072 C315.000804,191.947503 314.597999,191.982852 314.200566,191.987711 C313.988191,191.992337 313.835024,191.994535 313.680452,191.994535 L306.234806,191.994535 L305.834559,191.994529 C305.666529,191.993865 305.496424,191.991576 305.32687,191.987816 C304.927102,191.982782 304.528282,191.947642 304.128617,191.881821 C303.702047,191.808137 303.28873,191.671733 302.898894,191.475419 C302.509443,191.276673 302.153784,191.017732 301.862193,190.724745 C301.83724,190.701456 301.818997,190.682572 301.770323,190.631252 C301.641121,190.504983 301.558407,190.423853 301.432928,190.298337 C301.336398,190.203505 301.259813,190.127258 301.089099,189.956544 L298.811456,187.675604 C298.737291,187.607182 298.697232,187.568209 298.629553,187.501325 C298.547216,187.420982 298.501201,187.375312 298.398391,187.272502 L296.323439,185.193734 C296.295849,185.165144 296.266133,185.134831 296.231747,185.100141 C296.205133,185.073293 296.183768,185.051881 296.134119,185.00223 C296.062233,184.930345 296.008411,184.875382 295.971886,184.835982 C295.79826,184.664362 295.634044,184.483486 295.479954,184.294148 C295.335628,184.141631 295.218934,183.965047 295.135197,183.772287 L295.112272,183.711591 C294.962576,183.248164 294.962576,182.74937 295.112272,182.285943 L295.134231,182.227482 C295.217338,182.034244 295.333415,181.857027 295.477196,181.703717 C295.631939,181.514057 295.796275,181.333212 295.95834,181.173291 C296.028993,181.099603 296.078983,181.048089 296.142167,180.984785 C296.165606,180.961149 296.165606,180.961149 296.197962,180.928697 C296.246967,180.879474 296.285077,180.840674 296.329493,180.794597 L298.398991,178.722768 C298.425445,178.696447 298.446702,178.675478 298.492609,178.630323 C298.545999,178.577802 298.571044,178.553046 298.59919,178.524904 C298.66045,178.464009 298.719542,178.406407 298.79055,178.339048 C298.795649,178.334641 299.561149,177.568972 301.087052,176.042042 Z M299.656489,179.351729 C299.657708,179.350806 299.658614,179.350121 299.659905,179.349064 C299.65987,179.349091 299.658731,179.34998 299.656489,179.351729 Z M299.730109,186.708862 L302.03212,189.014205 C302.1997,189.181786 302.274428,189.256183 302.371406,189.351492 C302.491873,189.471959 302.566342,189.545001 302.642549,189.616549 C302.666941,189.639287 302.663352,189.63554 302.736999,189.713195 C302.759026,189.736419 302.776434,189.75444 302.788987,189.76674 C302.998724,189.977046 303.240325,190.152946 303.501681,190.286333 C303.770842,190.42187 304.058579,190.516829 304.350365,190.567252 C304.678795,190.621325 305.010831,190.65058 305.349924,190.654879 C305.517933,190.658576 305.680043,190.660758 305.837194,190.661384 L313.680452,190.661384 C313.823438,190.661384 313.968014,190.659309 314.177851,190.654769 C314.514712,190.650625 314.850782,190.621133 315.177751,190.567462 C315.477187,190.51573 315.76727,190.419773 316.038256,190.282858 C316.306047,190.147423 316.550552,189.97019 316.762041,189.758357 C316.97458,189.544986 317.152615,189.299835 317.287577,189.035994 C317.424481,188.763487 317.520279,188.472211 317.57099,188.176812 C317.625324,187.844519 317.654617,187.508614 317.658866,187.160148 C317.661835,187.05979 317.663168,186.977785 317.66537,186.791368 C317.666097,186.729755 317.666121,186.727733 317.666906,186.66805 L317.666906,179.879861 L317.666954,179.290275 C317.666366,179.239558 317.666366,179.239558 317.665825,179.189243 C317.664568,179.072373 317.663945,179.021953 317.662857,178.958672 C317.661866,178.901033 317.660682,178.848806 317.658954,178.787227 C317.655015,178.454123 317.626054,178.121786 317.573223,177.798426 C317.522131,177.501214 317.427411,177.21318 317.294493,176.948314 C317.158776,176.683123 316.982585,176.440689 316.771314,176.228783 C316.562625,176.018631 316.321568,175.843325 316.05756,175.709663 C315.789387,175.574021 315.502543,175.47899 315.213277,175.428834 C314.883562,175.375237 314.550331,175.346133 314.209051,175.341624 C314.030718,175.337344 313.874014,175.33515 313.718414,175.335117 C313.555563,175.33348 313.42442,175.333151 313.127862,175.333151 L306.432446,175.333151 C306.138037,175.333151 306.006025,175.333482 305.835861,175.33515 C305.687211,175.33515 305.530912,175.337332 305.342744,175.341758 C305.009408,175.346166 304.676856,175.375264 304.35463,175.427669 C304.057605,175.479173 303.769831,175.574329 303.503147,175.708784 C303.239046,175.843335 302.997987,176.018973 302.784509,176.233585 C302.783496,176.234584 302.768644,176.250207 302.738093,176.282619 C302.679375,176.344916 302.666669,176.358202 302.645404,176.378047 C302.549475,176.469031 302.458763,176.557377 302.364779,176.651603 C302.267043,176.747046 302.167197,176.846451 302.031427,176.983022 L299.731435,179.286014 C299.698761,179.31631 299.687283,179.326952 299.67743,179.335187 C299.632572,179.378193 299.586899,179.422831 299.540461,179.468989 C299.51045,179.499 299.483369,179.525767 299.436598,179.571778 C299.382492,179.625001 299.36335,179.643884 299.340754,179.666362 L297.281957,181.727296 C297.24033,181.770658 297.196964,181.814809 297.142739,181.869275 C297.108635,181.903481 297.108635,181.903481 297.065417,181.946503 C297.031302,181.981081 296.986192,182.027566 296.908148,182.108619 C296.762484,182.252645 296.624906,182.404626 296.496046,182.563865 L296.455667,182.609352 C296.421483,182.644492 296.392932,182.684627 296.370968,182.728331 C296.320672,182.90464 296.320545,183.0915 296.370586,183.267863 C296.392521,183.310795 296.420915,183.350177 296.454824,183.384611 L296.498741,183.433863 C296.626895,183.592768 296.76389,183.744335 296.925716,183.90489 C296.968077,183.949867 297.013512,183.996264 297.076799,184.059551 C297.127135,184.109886 297.150112,184.132913 297.17856,184.161613 C297.216856,184.200246 297.250617,184.234686 297.274856,184.259941 L299.341488,186.330239 C299.439068,186.42782 299.48193,186.47036 299.537019,186.523812 C299.613339,186.599236 299.643892,186.629116 299.679413,186.663046 C299.682597,186.665727 299.699496,186.680999 299.730109,186.708862 Z M305.977789,180.290504 L305.969176,180.299137 L308.668832,182.995765 L306.073994,185.593794 C306.036538,185.617319 306.001333,185.64524 305.969176,185.6774 L305.969176,185.676067 C305.856646,185.788251 305.793398,185.940612 305.793398,186.099509 C305.793398,186.258406 305.856646,186.410767 305.969176,186.522951 C306.140175,186.693964 306.397354,186.745128 306.620787,186.652584 C306.693899,186.622302 306.758686,186.578584 306.812768,186.524992 L306.823392,186.535616 L309.514857,183.840841 L312.208654,186.531616 L312.213778,186.526491 C312.323641,186.635366 312.473936,186.699793 312.634762,186.699793 C312.876602,186.699793 313.094628,186.55411 313.187171,186.330678 C313.279715,186.107245 313.228551,185.850066 313.057538,185.679067 L313.058871,185.677733 C313.031142,185.650006 313.000971,185.625284 312.968863,185.603777 L310.359036,182.995623 L313.055871,180.295471 L313.04908,180.288679 C313.157955,180.178816 313.222382,180.028522 313.222382,179.867696 C313.222382,179.625857 313.076699,179.407831 312.853266,179.315287 C312.629834,179.222744 312.372655,179.273908 312.201655,179.444921 C312.175585,179.470993 312.152426,179.498874 312.132177,179.528159 L309.513214,182.150343 L306.901556,179.540359 C306.879576,179.507016 306.854038,179.475564 306.825058,179.446587 L306.827725,179.446587 C306.715488,179.333648 306.56284,179.27014 306.403616,179.27014 C306.244392,179.27014 306.091744,179.333648 305.979508,179.446587 C305.808495,179.617587 305.757331,179.874766 305.849874,180.098198 C305.880217,180.171456 305.92405,180.236356 305.977789,180.290504 Z" id="Delete"></path>
                    </g>
                </g>
            </g>
        </g>
    </g>
</svg>