<?xml version="1.0" encoding="UTF-8"?>
<svg width="366px" height="58px" viewBox="0 0 366 58" version="1.1" xmlns="http://www.w3.org/2000/svg" xmlns:xlink="http://www.w3.org/1999/xlink">
    <!-- Generator: Sketch 47.1 (45422) - http://www.bohemiancoding.com/sketch -->
    <title>audio waves</title>
    <desc>Created with Sketch.</desc>
    <defs></defs>
    <g id="UI-Elements" stroke="none" stroke-width="1" fill="none" fill-rule="evenodd">
        <g id="UI-Elements---System" transform="translate(-1210.000000, -650.000000)" fill="#FFFFFF">
            <g id="Dictation-Light" transform="translate(1205.000000, 120.000000)">
                <g id="Dictation" transform="translate(0.000000, 451.000000)">
                    <path d="M11,107.712 L11,108.287 L11,108.284 C11,108.189 11.003,108.094 11.005,108 C11.003,107.905 11,107.81 11,107.715 L11,107.712 Z M13.435,107.448 C13.362,107.175 13.21,106.936 12.995,106.764 C12.781,106.592 12.52,106.5 12.25,106.5 C11.981,106.5 11.719,106.592 11.505,106.764 C11.29,106.936 11.138,107.175 11.065,107.448 C11.03,107.578 11.015,107.709 11.007,107.842 C11.004,107.895 11.006,107.947 11.005,108 C11.006,108.052 11.004,108.105 11.007,108.157 C11.015,108.291 11.03,108.421 11.065,108.551 C11.138,108.824 11.29,109.063 11.505,109.235 C11.719,109.407 11.981,109.5 12.25,109.5 C12.52,109.5 12.781,109.407 12.995,109.235 C13.21,109.063 13.362,108.824 13.435,108.551 C13.47,108.421 13.485,108.291 13.493,108.157 C13.496,108.105 13.494,108.052 13.495,108 C13.494,107.947 13.496,107.895 13.493,107.842 C13.485,107.709 13.47,107.578 13.435,107.448 L13.435,107.448 Z M13.495,108 C13.497,108.094 13.5,108.189 13.5,108.284 L13.5,108.287 L13.5,107.712 L13.5,107.715 C13.5,107.81 13.497,107.905 13.495,108 L13.495,108 Z M19.435,107.448 C19.362,107.175 19.21,106.936 18.995,106.764 C18.781,106.592 18.52,106.5 18.25,106.5 C17.981,106.5 17.719,106.592 17.505,106.764 C17.29,106.936 17.138,107.175 17.065,107.448 C17.03,107.578 17.015,107.709 17.007,107.842 C17.004,107.895 17.006,107.947 17.005,108 C17.006,108.052 17.004,108.105 17.007,108.157 C17.015,108.291 17.03,108.421 17.065,108.551 C17.138,108.824 17.29,109.063 17.505,109.235 C17.719,109.407 17.981,109.5 18.25,109.5 C18.52,109.5 18.781,109.407 18.995,109.235 C19.21,109.063 19.362,108.824 19.435,108.551 C19.47,108.421 19.485,108.291 19.493,108.157 C19.496,108.105 19.494,108.052 19.495,108 C19.494,107.947 19.496,107.895 19.493,107.842 C19.485,107.709 19.47,107.578 19.435,107.448 L19.435,107.448 Z M19.5,108.284 L19.5,107.715 C19.5,107.81 19.497,107.905 19.495,108 C19.497,108.094 19.5,108.189 19.5,108.284 L19.5,108.284 Z M17,107.712 L17,108.287 L17,108.284 C17,108.189 17.003,108.094 17.005,108 C17.003,107.905 17,107.81 17,107.715 L17,107.712 Z M25.493,106.842 C25.485,106.709 25.47,106.578 25.435,106.448 C25.362,106.175 25.21,105.936 24.995,105.764 C24.781,105.592 24.52,105.5 24.25,105.5 C23.981,105.5 23.719,105.592 23.505,105.764 C23.29,105.936 23.138,106.175 23.065,106.448 C23.03,106.578 23.015,106.709 23.007,106.842 C23,106.99 23,107.137 23,107.284 L23,107.287 L23,108.712 L23,108.715 C23,108.862 23,109.009 23.007,109.157 C23.015,109.291 23.03,109.421 23.065,109.551 C23.138,109.824 23.29,110.063 23.505,110.235 C23.719,110.407 23.981,110.5 24.25,110.5 C24.52,110.5 24.781,110.407 24.995,110.235 C25.21,110.063 25.362,109.824 25.435,109.551 C25.47,109.421 25.485,109.291 25.493,109.157 C25.5,109.009 25.5,108.862 25.5,108.715 L25.5,108.712 L25.5,107.287 L25.5,107.284 C25.5,107.137 25.5,106.99 25.493,106.842 L25.493,106.842 Z M29,107.215 L29,108.784 C29,108.637 29,108.49 29.007,108.342 C29.014,108.226 29.031,108.113 29.057,108 C29.031,107.886 29.014,107.773 29.007,107.657 C29,107.509 29,107.362 29,107.215 L29,107.215 Z M30.995,107.264 C30.781,107.092 30.52,107 30.25,107 C29.981,107 29.719,107.092 29.505,107.264 C29.29,107.436 29.138,107.675 29.065,107.948 C29.061,107.965 29.061,107.983 29.057,108 C29.061,108.017 29.061,108.034 29.065,108.051 C29.138,108.324 29.29,108.563 29.505,108.735 C29.719,108.907 29.981,109 30.25,109 C30.52,109 30.781,108.907 30.995,108.735 C31.21,108.563 31.362,108.324 31.435,108.051 C31.439,108.034 31.439,108.017 31.443,108 C31.439,107.983 31.439,107.965 31.435,107.948 C31.362,107.675 31.21,107.436 30.995,107.264 L30.995,107.264 Z M31.443,108 C31.469,108.113 31.486,108.226 31.493,108.342 C31.5,108.49 31.5,108.637 31.5,108.784 L31.5,107.215 C31.5,107.362 31.5,107.509 31.493,107.657 C31.486,107.773 31.469,107.886 31.443,108 L31.443,108 Z M36.935,106.448 C36.862,106.175 36.71,105.936 36.495,105.764 C36.281,105.592 36.02,105.5 35.75,105.5 C35.481,105.5 35.219,105.592 35.005,105.764 C34.79,105.936 34.638,106.175 34.565,106.448 C34.53,106.578 34.515,106.709 34.507,106.842 C34.5,106.99 34.5,107.137 34.5,107.284 L34.5,108.715 C34.5,108.862 34.5,109.009 34.507,109.157 C34.515,109.291 34.53,109.421 34.565,109.551 C34.638,109.824 34.79,110.063 35.005,110.235 C35.219,110.407 35.481,110.5 35.75,110.5 C36.02,110.5 36.281,110.407 36.495,110.235 C36.71,110.063 36.862,109.824 36.935,109.551 C36.97,109.421 36.985,109.291 36.993,109.157 C37,109.009 37,108.862 37,108.715 L37,107.284 C37,107.137 37,106.99 36.993,106.842 C36.985,106.709 36.97,106.578 36.935,106.448 L36.935,106.448 Z M42.993,106.342 C42.985,106.209 42.97,106.078 42.935,105.948 C42.862,105.675 42.71,105.436 42.495,105.264 C42.281,105.092 42.02,105 41.75,105 C41.481,105 41.219,105.092 41.005,105.264 C40.79,105.436 40.638,105.675 40.565,105.948 C40.53,106.078 40.515,106.209 40.507,106.342 C40.5,106.49 40.5,106.637 40.5,106.784 L40.5,106.787 L40.5,109.212 L40.5,109.215 C40.5,109.362 40.5,109.509 40.507,109.657 C40.515,109.791 40.53,109.921 40.565,110.051 C40.638,110.324 40.79,110.563 41.005,110.735 C41.219,110.907 41.481,111 41.75,111 C42.02,111 42.281,110.907 42.495,110.735 C42.71,110.563 42.862,110.324 42.935,110.051 C42.97,109.921 42.985,109.791 42.993,109.657 C43,109.509 43,109.362 43,109.215 L43,109.212 L43,106.787 L43,106.784 C43,106.637 43,106.49 42.993,106.342 L42.993,106.342 Z M48.935,100.448 C48.862,100.175 48.71,99.936 48.495,99.764 C48.281,99.592 48.02,99.5 47.75,99.5 C47.481,99.5 47.219,99.592 47.005,99.764 C46.79,99.936 46.638,100.175 46.565,100.448 C46.53,100.578 46.515,100.709 46.507,100.842 C46.5,100.99 46.5,101.137 46.5,101.284 L46.5,114.715 C46.5,114.862 46.5,115.009 46.507,115.157 C46.515,115.291 46.53,115.421 46.565,115.55 C46.638,115.824 46.79,116.063 47.005,116.235 C47.219,116.407 47.481,116.5 47.75,116.5 C48.02,116.5 48.281,116.407 48.495,116.235 C48.71,116.063 48.862,115.824 48.935,115.55 C48.97,115.421 48.985,115.291 48.993,115.157 C49,115.009 49,114.862 49,114.715 L49,101.284 C49,101.137 49,100.99 48.993,100.842 C48.985,100.709 48.97,100.578 48.935,100.448 L48.935,100.448 Z M54.993,105.342 C54.985,105.209 54.97,105.078 54.935,104.948 C54.862,104.675 54.71,104.436 54.495,104.264 C54.281,104.092 54.02,104 53.75,104 C53.481,104 53.219,104.092 53.005,104.264 C52.79,104.436 52.638,104.675 52.565,104.948 C52.53,105.078 52.515,105.209 52.507,105.342 C52.5,105.49 52.5,105.637 52.5,105.784 L52.5,105.787 L52.5,109.712 L52.5,109.715 C52.5,109.862 52.5,110.509 52.507,110.657 C52.515,110.791 52.53,110.921 52.565,111.051 C52.638,111.324 52.79,111.563 53.005,111.735 C53.219,111.907 53.481,112 53.75,112 C54.02,112 54.281,111.907 54.495,111.735 C54.71,111.563 54.862,111.324 54.935,111.051 C54.97,110.921 54.985,110.791 54.993,110.657 C55,110.509 55,109.862 55,109.715 L55,109.712 L55,105.787 L55,105.784 C55,105.637 55,105.49 54.993,105.342 L54.993,105.342 Z M60.993,99.342 C60.985,99.209 60.97,99.078 60.935,98.948 C60.862,98.675 60.71,98.436 60.495,98.264 C60.281,98.092 60.02,98 59.75,98 C59.481,98 59.219,98.092 59.005,98.264 C58.79,98.436 58.638,98.675 58.565,98.948 C58.53,99.078 58.515,99.209 58.507,99.342 C58.5,99.49 58.5,99.637 58.5,99.784 L58.5,99.787 L58.5,116.212 L58.5,116.215 C58.5,116.363 58.5,116.509 58.507,116.657 C58.515,116.791 58.53,116.921 58.565,117.05 C58.638,117.324 58.79,117.563 59.005,117.735 C59.219,117.907 59.481,118 59.75,118 C60.02,118 60.281,117.907 60.495,117.735 C60.71,117.563 60.862,117.324 60.935,117.05 C60.97,116.921 60.985,116.791 60.993,116.657 C61,116.509 61,116.363 61,116.215 L61,116.212 L61,99.787 L61,99.784 C61,99.637 61,99.49 60.993,99.342 L60.993,99.342 Z M66.993,97.842 C66.985,97.709 66.97,97.578 66.935,97.448 C66.862,97.175 66.71,96.936 66.495,96.764 C66.281,96.592 66.02,96.5 65.75,96.5 C65.481,96.5 65.219,96.592 65.005,96.764 C64.79,96.936 64.638,97.175 64.565,97.448 C64.53,97.578 64.515,97.709 64.507,97.842 C64.5,97.99 64.5,98.137 64.5,98.284 L64.5,98.287 L64.5,117.712 L64.5,117.715 C64.5,117.863 64.5,118.009 64.507,118.157 C64.515,118.291 64.53,118.421 64.565,118.55 C64.638,118.824 64.79,119.063 65.005,119.235 C65.219,119.407 65.481,119.5 65.75,119.5 C66.02,119.5 66.281,119.407 66.495,119.235 C66.71,119.063 66.862,118.824 66.935,118.55 C66.97,118.421 66.985,118.291 66.993,118.157 C67,118.009 67,117.863 67,117.715 L67,117.712 L67,98.287 L67,98.284 C67,98.137 67,97.99 66.993,97.842 L66.993,97.842 Z M72.993,105.342 C72.985,105.209 72.97,105.078 72.935,104.948 C72.862,104.675 72.71,104.436 72.495,104.264 C72.281,104.092 72.02,104 71.75,104 C71.481,104 71.219,104.092 71.005,104.264 C70.79,104.436 70.638,104.675 70.565,104.948 C70.53,105.078 70.515,105.209 70.507,105.342 C70.5,105.49 70.5,105.637 70.5,105.784 L70.5,105.787 L70.5,110.212 L70.5,110.215 C70.5,110.362 70.5,110.509 70.507,110.657 C70.515,110.791 70.53,110.921 70.565,111.051 C70.638,111.324 70.79,111.563 71.005,111.735 C71.219,111.907 71.481,112 71.75,112 C72.02,112 72.281,111.907 72.495,111.735 C72.71,111.563 72.862,111.324 72.935,111.051 C72.97,110.921 72.985,110.791 72.993,110.657 C73,110.509 73,110.362 73,110.215 L73,110.212 L73,105.787 L73,105.784 C73,105.637 73,105.49 72.993,105.342 L72.993,105.342 Z M78.935,93.448 C78.862,93.175 78.71,92.936 78.495,92.764 C78.281,92.592 78.02,92.5 77.75,92.5 C77.481,92.5 77.219,92.592 77.005,92.764 C76.79,92.936 76.638,93.175 76.565,93.448 C76.53,93.578 76.515,93.709 76.507,93.842 C76.5,93.99 76.5,94.137 76.5,94.284 L76.5,121.715 C76.5,121.863 76.5,122.009 76.507,122.157 C76.515,122.291 76.53,122.421 76.565,122.55 C76.638,122.824 76.79,123.063 77.005,123.235 C77.219,123.407 77.481,123.5 77.75,123.5 C78.02,123.5 78.281,123.407 78.495,123.235 C78.71,123.063 78.862,122.824 78.935,122.55 C78.97,122.421 78.985,122.291 78.993,122.157 C79,122.009 79,121.863 79,121.715 L79,94.284 C79,94.137 79,93.99 78.993,93.842 C78.985,93.709 78.97,93.578 78.935,93.448 L78.935,93.448 Z M84.993,103.342 C84.985,103.209 84.97,103.078 84.935,102.948 C84.862,102.675 84.71,102.436 84.495,102.264 C84.281,102.092 84.02,102 83.75,102 C83.481,102 83.219,102.092 83.005,102.264 C82.79,102.436 82.638,102.675 82.565,102.948 C82.53,103.078 82.515,103.209 82.507,103.342 C82.5,103.49 82.5,103.637 82.5,103.784 L82.5,103.787 L82.5,112.212 L82.5,112.215 C82.5,112.362 82.5,112.509 82.507,112.657 C82.515,112.791 82.53,112.921 82.565,113.051 C82.638,113.324 82.79,113.563 83.005,113.735 C83.219,113.907 83.481,114 83.75,114 C84.02,114 84.281,113.907 84.495,113.735 C84.71,113.563 84.862,113.324 84.935,113.051 C84.97,112.921 84.985,112.791 84.993,112.657 C85,112.509 85,112.362 85,112.215 L85,112.212 L85,103.787 L85,103.784 C85,103.637 85,103.49 84.993,103.342 L84.993,103.342 Z M90.935,99.448 C90.862,99.175 90.71,98.936 90.495,98.764 C90.281,98.592 90.02,98.5 89.75,98.5 C89.481,98.5 89.219,98.592 89.005,98.764 C88.79,98.936 88.638,99.175 88.565,99.448 C88.53,99.578 88.515,99.709 88.507,99.842 C88.5,99.99 88.5,100.137 88.5,100.284 L88.5,115.715 C88.5,115.863 88.5,116.009 88.507,116.157 C88.515,116.291 88.53,116.421 88.565,116.55 C88.638,116.824 88.79,117.063 89.005,117.235 C89.219,117.407 89.481,117.5 89.75,117.5 C90.02,117.5 90.281,117.407 90.495,117.235 C90.71,117.063 90.862,116.824 90.935,116.55 C90.97,116.421 90.985,116.291 90.993,116.157 C91,116.009 91,115.863 91,115.715 L91,100.284 C91,100.137 91,99.99 90.993,99.842 C90.985,99.709 90.97,99.578 90.935,99.448 L90.935,99.448 Z M96.435,106.948 C96.362,106.675 96.21,106.436 95.995,106.264 C95.781,106.092 95.52,106 95.25,106 C94.981,106 94.719,106.092 94.505,106.264 C94.29,106.436 94.138,106.675 94.065,106.948 C94.03,107.078 94.015,107.209 94.007,107.342 C94,107.49 94,107.637 94,107.784 L94,108.215 C94,108.362 94,108.509 94.007,108.657 C94.015,108.791 94.03,108.921 94.065,109.051 C94.138,109.324 94.29,109.563 94.505,109.735 C94.719,109.907 94.981,110 95.25,110 C95.52,110 95.781,109.907 95.995,109.735 C96.21,109.563 96.362,109.324 96.435,109.051 C96.47,108.921 96.485,108.791 96.493,108.657 C96.5,108.509 96.5,108.362 96.5,108.215 L96.5,107.784 C96.5,107.637 96.5,107.49 96.493,107.342 C96.485,107.209 96.47,107.078 96.435,106.948 L96.435,106.948 Z M102.493,95.342 C102.485,95.209 102.47,95.078 102.435,94.948 C102.362,94.675 102.21,94.436 101.995,94.264 C101.781,94.092 101.52,94 101.25,94 C100.981,94 100.719,94.092 100.505,94.264 C100.29,94.436 100.138,94.675 100.065,94.948 C100.03,95.078 100.015,95.209 100.007,95.342 C100,95.49 100,95.637 100,95.784 L100,95.787 L100,120.212 L100,120.215 C100,120.363 100,120.509 100.007,120.657 C100.015,120.791 100.03,120.921 100.065,121.05 C100.138,121.324 100.29,121.563 100.505,121.735 C100.719,121.907 100.981,122 101.25,122 C101.52,122 101.781,121.907 101.995,121.735 C102.21,121.563 102.362,121.324 102.435,121.05 C102.47,120.921 102.485,120.791 102.493,120.657 C102.5,120.509 102.5,120.363 102.5,120.215 L102.5,120.212 L102.5,95.787 L102.5,95.784 C102.5,95.637 102.5,95.49 102.493,95.342 L102.493,95.342 Z M108.435,88.948 C108.362,88.675 108.21,88.436 107.995,88.264 C107.781,88.092 107.52,88 107.25,88 C106.981,88 106.719,88.092 106.505,88.264 C106.29,88.436 106.138,88.675 106.065,88.948 C106.03,89.078 106.015,89.209 106.007,89.342 C106,89.49 106,89.637 106,89.784 L106,89.787 L106,126.212 L106,126.215 C106,126.363 106,126.509 106.007,126.657 C106.015,126.791 106.03,126.921 106.065,127.05 C106.138,127.324 106.29,127.563 106.505,127.735 C106.719,127.907 106.981,128 107.25,128 C107.52,128 107.781,127.907 107.995,127.735 C108.21,127.563 108.362,127.324 108.435,127.05 C108.47,126.921 108.485,126.791 108.493,126.657 C108.5,126.509 108.5,126.363 108.5,126.215 L108.5,89.784 C108.5,89.637 108.5,89.49 108.493,89.342 C108.485,89.209 108.47,89.078 108.435,88.948 L108.435,88.948 Z M114.493,92.342 C114.485,92.209 114.47,92.078 114.435,91.948 C114.362,91.675 114.21,91.436 113.995,91.264 C113.781,91.092 113.52,91 113.25,91 C112.981,91 112.719,91.092 112.505,91.264 C112.29,91.436 112.138,91.675 112.065,91.948 C112.03,92.078 112.015,92.209 112.007,92.342 C112,92.49 112,92.637 112,92.784 L112,92.787 L112,123.212 L112,123.215 C112,123.363 112,123.509 112.007,123.657 C112.015,123.791 112.03,123.921 112.065,124.05 C112.138,124.324 112.29,124.563 112.505,124.735 C112.719,124.907 112.981,125 113.25,125 C113.52,125 113.781,124.907 113.995,124.735 C114.21,124.563 114.362,124.324 114.435,124.05 C114.47,123.921 114.485,123.791 114.493,123.657 C114.5,123.509 114.5,123.363 114.5,123.215 L114.5,123.212 L114.5,92.787 L114.5,92.784 C114.5,92.637 114.5,92.49 114.493,92.342 L114.493,92.342 Z M120.493,99.342 C120.485,99.209 120.47,99.078 120.435,98.948 C120.362,98.675 120.21,98.436 119.995,98.264 C119.781,98.092 119.52,98 119.25,98 C118.981,98 118.719,98.092 118.505,98.264 C118.29,98.436 118.138,98.675 118.065,98.948 C118.03,99.078 118.015,99.209 118.007,99.342 C118,99.49 118,99.637 118,99.784 L118,99.787 L118,116.212 L118,116.215 C118,116.363 118,116.509 118.007,116.657 C118.015,116.791 118.03,116.921 118.065,117.05 C118.138,117.324 118.29,117.563 118.505,117.735 C118.719,117.907 118.981,118 119.25,118 C119.52,118 119.781,117.907 119.995,117.735 C120.21,117.563 120.362,117.324 120.435,117.05 C120.47,116.921 120.485,116.791 120.493,116.657 C120.5,116.509 120.5,116.363 120.5,116.215 L120.5,116.212 L120.5,99.787 L120.5,99.784 C120.5,99.637 120.5,99.49 120.493,99.342 L120.493,99.342 Z M126.435,91.948 C126.362,91.675 126.21,91.436 125.995,91.264 C125.781,91.092 125.52,91 125.25,91 C124.981,91 124.719,91.092 124.505,91.264 C124.29,91.436 124.138,91.675 124.065,91.948 C124.03,92.078 124.015,92.209 124.007,92.342 C124,92.49 124,92.637 124,92.784 L124,92.787 L124,123.212 L124,123.215 C124,123.363 124,123.509 124.007,123.657 C124.015,123.791 124.03,123.921 124.065,124.05 C124.138,124.324 124.29,124.563 124.505,124.735 C124.719,124.907 124.981,125 125.25,125 C125.52,125 125.781,124.907 125.995,124.735 C126.21,124.563 126.362,124.324 126.435,124.05 C126.47,123.921 126.485,123.791 126.493,123.657 C126.5,123.509 126.5,123.363 126.5,123.215 L126.5,92.784 C126.5,92.637 126.5,92.49 126.493,92.342 C126.485,92.209 126.47,92.078 126.435,91.948 L126.435,91.948 Z M132.493,94.342 C132.485,94.209 132.47,94.078 132.435,93.948 C132.362,93.675 132.21,93.436 131.995,93.264 C131.781,93.092 131.52,93 131.25,93 C130.981,93 130.719,93.092 130.505,93.264 C130.29,93.436 130.138,93.675 130.065,93.948 C130.03,94.078 130.015,94.209 130.007,94.342 C130,94.49 130,94.637 130,94.784 L130,94.787 L130,121.212 L130,121.215 C130,121.363 130,121.509 130.007,121.657 C130.015,121.791 130.03,121.921 130.065,122.05 C130.138,122.324 130.29,122.563 130.505,122.735 C130.719,122.907 130.981,123 131.25,123 C131.52,123 131.781,122.907 131.995,122.735 C132.21,122.563 132.362,122.324 132.435,122.05 C132.47,121.921 132.485,121.791 132.493,121.657 C132.5,121.509 132.5,121.363 132.5,121.215 L132.5,121.212 L132.5,94.787 L132.5,94.784 C132.5,94.637 132.5,94.49 132.493,94.342 L132.493,94.342 Z M138.435,102.948 C138.362,102.675 138.21,102.436 137.995,102.264 C137.781,102.092 137.52,102 137.25,102 C136.981,102 136.719,102.092 136.505,102.264 C136.29,102.436 136.138,102.675 136.065,102.948 C136.03,103.078 136.015,103.209 136.007,103.342 C136,103.49 136,103.637 136,103.784 L136,112.215 C136,112.362 136,112.509 136.007,112.657 C136.015,112.791 136.03,112.921 136.065,113.051 C136.138,113.324 136.29,113.563 136.505,113.735 C136.719,113.907 136.981,114 137.25,114 C137.52,114 137.781,113.907 137.995,113.735 C138.21,113.563 138.362,113.324 138.435,113.051 C138.47,112.921 138.485,112.791 138.493,112.657 C138.5,112.509 138.5,112.362 138.5,112.215 L138.5,103.784 C138.5,103.637 138.5,103.49 138.493,103.342 C138.485,103.209 138.47,103.078 138.435,102.948 L138.435,102.948 Z M144.493,101.342 C144.485,101.209 144.47,101.078 144.435,100.948 C144.362,100.675 144.21,100.436 143.995,100.264 C143.781,100.092 143.52,100 143.25,100 C142.981,100 142.719,100.092 142.505,100.264 C142.29,100.436 142.138,100.675 142.065,100.948 C142.03,101.078 142.015,101.209 142.007,101.342 C142,101.49 142,101.637 142,101.784 L142,101.787 L142,114.212 L142,114.215 C142,114.362 142,114.509 142.007,114.657 C142.015,114.791 142.03,114.921 142.065,115.05 C142.138,115.324 142.29,115.563 142.505,115.735 C142.719,115.907 142.981,116 143.25,116 C143.52,116 143.781,115.907 143.995,115.735 C144.21,115.563 144.362,115.324 144.435,115.05 C144.47,114.921 144.485,114.791 144.493,114.657 C144.5,114.509 144.5,114.362 144.5,114.215 L144.5,114.212 L144.5,101.787 L144.5,101.784 C144.5,101.637 144.5,101.49 144.493,101.342 L144.493,101.342 Z M150.435,103.948 C150.362,103.675 150.21,103.436 149.995,103.264 C149.781,103.092 149.52,103 149.25,103 C148.981,103 148.719,103.092 148.505,103.264 C148.29,103.436 148.138,103.675 148.065,103.948 C148.03,104.078 148.015,104.209 148.007,104.342 C148,104.49 148,104.637 148,104.784 L148,111.215 C148,111.362 148,111.509 148.007,111.657 C148.015,111.791 148.03,111.921 148.065,112.051 C148.138,112.324 148.29,112.563 148.505,112.735 C148.719,112.907 148.981,113 149.25,113 C149.52,113 149.781,112.907 149.995,112.735 C150.21,112.563 150.362,112.324 150.435,112.051 C150.47,111.921 150.485,111.791 150.493,111.657 C150.5,111.509 150.5,111.362 150.5,111.215 L150.5,104.784 C150.5,104.637 150.5,104.49 150.493,104.342 C150.485,104.209 150.47,104.078 150.435,103.948 L150.435,103.948 Z M156.493,106.342 C156.485,106.209 156.47,106.078 156.435,105.948 C156.362,105.675 156.21,105.436 155.995,105.264 C155.781,105.092 155.52,105 155.25,105 C154.981,105 154.719,105.092 154.505,105.264 C154.29,105.436 154.138,105.675 154.065,105.948 C154.03,106.078 154.015,106.209 154.007,106.342 C154,106.49 154,106.637 154,106.784 L154,106.787 L154,109.212 L154,109.215 C154,109.362 154,109.509 154.007,109.657 C154.015,109.791 154.03,109.921 154.065,110.051 C154.138,110.324 154.29,110.563 154.505,110.735 C154.719,110.907 154.981,111 155.25,111 C155.52,111 155.781,110.907 155.995,110.735 C156.21,110.563 156.362,110.324 156.435,110.051 C156.47,109.921 156.485,109.791 156.493,109.657 C156.5,109.509 156.5,109.362 156.5,109.215 L156.5,109.212 L156.5,106.787 L156.5,106.784 C156.5,106.637 156.5,106.49 156.493,106.342 L156.493,106.342 Z M161.993,89.342 C161.985,89.209 161.97,89.078 161.935,88.948 C161.862,88.675 161.71,88.436 161.495,88.264 C161.281,88.092 161.02,88 160.75,88 C160.481,88 160.219,88.092 160.005,88.264 C159.79,88.436 159.638,88.675 159.565,88.948 C159.53,89.078 159.515,89.209 159.507,89.342 C159.5,89.49 159.5,89.637 159.5,89.784 L159.5,89.787 L159.5,126.212 L159.5,126.215 C159.5,126.363 159.5,126.509 159.507,126.657 C159.515,126.791 159.53,126.921 159.565,127.05 C159.638,127.324 159.79,127.563 160.005,127.735 C160.219,127.907 160.481,128 160.75,128 C161.02,128 161.281,127.907 161.495,127.735 C161.71,127.563 161.862,127.324 161.935,127.05 C161.97,126.921 161.985,126.791 161.993,126.657 C162,126.509 162,126.363 162,126.215 L162,126.212 L162,89.787 L162,89.784 C162,89.637 162,89.49 161.993,89.342 L161.993,89.342 Z M167.993,82.342 C167.985,82.209 167.97,82.078 167.935,81.948 C167.862,81.675 167.71,81.436 167.495,81.264 C167.281,81.092 167.02,81 166.75,81 C166.481,81 166.219,81.092 166.005,81.264 C165.79,81.436 165.638,81.675 165.565,81.948 C165.53,82.078 165.515,82.209 165.507,82.342 C165.5,82.49 165.5,82.637 165.5,82.784 L165.5,82.787 L165.5,133.212 L165.5,133.215 C165.5,133.363 165.5,133.509 165.507,133.657 C165.515,133.791 165.53,133.921 165.565,134.05 C165.638,134.324 165.79,134.563 166.005,134.735 C166.219,134.907 166.481,135 166.75,135 C167.02,135 167.281,134.907 167.495,134.735 C167.71,134.563 167.862,134.324 167.935,134.05 C167.97,133.921 167.985,133.791 167.993,133.657 C168,133.509 168,133.363 168,133.215 L168,133.212 L168,82.787 L168,82.784 C168,82.637 168,82.49 167.993,82.342 L167.993,82.342 Z M173.935,91.448 C173.862,91.175 173.71,90.936 173.495,90.764 C173.281,90.592 173.02,90.5 172.75,90.5 C172.481,90.5 172.219,90.592 172.005,90.764 C171.79,90.936 171.638,91.175 171.565,91.448 C171.53,91.578 171.515,91.709 171.507,91.842 C171.5,91.99 171.5,92.137 171.5,92.284 L171.5,92.287 L171.5,123.712 L171.5,123.715 C171.5,123.863 171.5,124.009 171.507,124.157 C171.515,124.291 171.53,124.421 171.565,124.55 C171.638,124.824 171.79,125.063 172.005,125.235 C172.219,125.407 172.481,125.5 172.75,125.5 C173.02,125.5 173.281,125.407 173.495,125.235 C173.71,125.063 173.862,124.824 173.935,124.55 C173.97,124.421 173.985,124.291 173.993,124.157 C174,124.009 174,123.863 174,123.715 L174,92.284 C174,92.137 174,91.99 173.993,91.842 C173.985,91.709 173.97,91.578 173.935,91.448 L173.935,91.448 Z M179.993,94.842 C179.985,94.709 179.97,94.578 179.935,94.448 C179.862,94.175 179.71,93.936 179.495,93.764 C179.281,93.592 179.02,93.5 178.75,93.5 C178.481,93.5 178.219,93.592 178.005,93.764 C177.79,93.936 177.638,94.175 177.565,94.448 C177.53,94.578 177.515,94.709 177.507,94.842 C177.5,94.99 177.5,95.137 177.5,95.284 L177.5,95.287 L177.5,120.712 L177.5,120.715 C177.5,120.863 177.5,121.009 177.507,121.157 C177.515,121.291 177.53,121.421 177.565,121.55 C177.638,121.824 177.79,122.063 178.005,122.235 C178.219,122.407 178.481,122.5 178.75,122.5 C179.02,122.5 179.281,122.407 179.495,122.235 C179.71,122.063 179.862,121.824 179.935,121.55 C179.97,121.421 179.985,121.291 179.993,121.157 C180,121.009 180,120.863 180,120.715 L180,120.712 L180,95.287 L180,95.284 C180,95.137 180,94.99 179.993,94.842 L179.993,94.842 Z M185.935,82.948 C185.862,82.675 185.71,82.436 185.495,82.264 C185.281,82.092 185.02,82 184.75,82 C184.481,82 184.219,82.092 184.005,82.264 C183.79,82.436 183.638,82.675 183.565,82.948 C183.53,83.078 183.515,83.209 183.507,83.342 C183.5,83.49 183.5,83.637 183.5,83.784 L183.5,132.215 C183.5,132.363 183.5,132.509 183.507,132.657 C183.515,132.791 183.53,132.921 183.565,133.05 C183.638,133.324 183.79,133.563 184.005,133.735 C184.219,133.907 184.481,134 184.75,134 C185.02,134 185.281,133.907 185.495,133.735 C185.71,133.563 185.862,133.324 185.935,133.05 C185.97,132.921 185.985,132.791 185.993,132.657 C186,132.509 186,132.363 186,132.215 L186,83.784 C186,83.637 186,83.49 185.993,83.342 C185.985,83.209 185.97,83.078 185.935,82.948 L185.935,82.948 Z M191.993,82.342 C191.985,82.209 191.97,82.078 191.935,81.948 C191.862,81.675 191.71,81.436 191.495,81.264 C191.281,81.092 191.02,81 190.75,81 C190.481,81 190.219,81.092 190.005,81.264 C189.79,81.436 189.638,81.675 189.565,81.948 C189.53,82.078 189.515,82.209 189.507,82.342 C189.5,82.49 189.5,82.637 189.5,82.784 L189.5,82.787 L189.5,133.212 L189.5,133.215 C189.5,133.363 189.5,133.509 189.507,133.657 C189.515,133.791 189.53,133.921 189.565,134.05 C189.638,134.324 189.79,134.563 190.005,134.735 C190.219,134.907 190.481,135 190.75,135 C191.02,135 191.281,134.907 191.495,134.735 C191.71,134.563 191.862,134.324 191.935,134.05 C191.97,133.921 191.985,133.791 191.993,133.657 C192,133.509 192,133.363 192,133.215 L192,133.212 L192,82.787 L192,82.784 C192,82.637 192,82.49 191.993,82.342 L191.993,82.342 Z M197.935,100.448 C197.862,100.175 197.71,99.936 197.495,99.764 C197.281,99.592 197.02,99.5 196.75,99.5 C196.481,99.5 196.219,99.592 196.005,99.764 C195.79,99.936 195.638,100.175 195.565,100.448 C195.53,100.578 195.515,100.709 195.507,100.842 C195.5,100.99 195.5,101.137 195.5,101.284 L195.5,114.715 C195.5,114.862 195.5,115.009 195.507,115.157 C195.515,115.291 195.53,115.421 195.565,115.55 C195.638,115.824 195.79,116.063 196.005,116.235 C196.219,116.407 196.481,116.5 196.75,116.5 C197.02,116.5 197.281,116.407 197.495,116.235 C197.71,116.063 197.862,115.824 197.935,115.55 C197.97,115.421 197.985,115.291 197.993,115.157 C198,115.009 198,114.862 198,114.715 L198,101.284 C198,101.137 198,100.99 197.993,100.842 C197.985,100.709 197.97,100.578 197.935,100.448 L197.935,100.448 Z M203.993,85.842 C203.985,85.709 203.97,85.578 203.935,85.448 C203.862,85.175 203.71,84.936 203.495,84.764 C203.281,84.592 203.02,84.5 202.75,84.5 C202.481,84.5 202.219,84.592 202.005,84.764 C201.79,84.936 201.638,85.175 201.565,85.448 C201.53,85.578 201.515,85.709 201.507,85.842 C201.5,85.99 201.5,86.137 201.5,86.284 L201.5,86.287 L201.5,129.712 L201.5,129.715 C201.5,129.863 201.5,130.009 201.507,130.157 C201.515,130.291 201.53,130.421 201.565,130.55 C201.638,130.824 201.79,131.063 202.005,131.235 C202.219,131.407 202.481,131.5 202.75,131.5 C203.02,131.5 203.281,131.407 203.495,131.235 C203.71,131.063 203.862,130.824 203.935,130.55 C203.97,130.421 203.985,130.291 203.993,130.157 C204,130.009 204,129.863 204,129.715 L204,129.712 L204,86.287 L204,86.284 C204,86.137 204,85.99 203.993,85.842 L203.993,85.842 Z M209.935,98.448 C209.862,98.175 209.71,97.936 209.495,97.764 C209.281,97.592 209.02,97.5 208.75,97.5 C208.481,97.5 208.219,97.592 208.005,97.764 C207.79,97.936 207.638,98.175 207.565,98.448 C207.53,98.578 207.515,98.709 207.507,98.842 C207.5,98.99 207.5,99.137 207.5,99.284 L207.5,116.715 C207.5,116.863 207.5,117.009 207.507,117.157 C207.515,117.291 207.53,117.421 207.565,117.55 C207.638,117.824 207.79,118.063 208.005,118.235 C208.219,118.407 208.481,118.5 208.75,118.5 C209.02,118.5 209.281,118.407 209.495,118.235 C209.71,118.063 209.862,117.824 209.935,117.55 C209.97,117.421 209.985,117.291 209.993,117.157 C210,117.009 210,116.863 210,116.715 L210,99.284 C210,99.137 210,98.99 209.993,98.842 C209.985,98.709 209.97,98.578 209.935,98.448 L209.935,98.448 Z M215.993,100.342 C215.985,100.209 215.97,100.078 215.935,99.948 C215.862,99.675 215.71,99.436 215.495,99.264 C215.281,99.092 215.02,99 214.75,99 C214.481,99 214.219,99.092 214.005,99.264 C213.79,99.436 213.638,99.675 213.565,99.948 C213.53,100.078 213.515,100.209 213.507,100.342 C213.5,100.49 213.5,100.637 213.5,100.784 L213.5,100.787 L213.5,115.212 L213.5,115.215 C213.5,115.363 213.5,115.509 213.507,115.657 C213.515,115.791 213.53,115.921 213.565,116.05 C213.638,116.324 213.79,116.563 214.005,116.735 C214.219,116.907 214.481,117 214.75,117 C215.02,117 215.281,116.907 215.495,116.735 C215.71,116.563 215.862,116.324 215.935,116.05 C215.97,115.921 215.985,115.791 215.993,115.657 C216,115.509 216,115.363 216,115.215 L216,115.212 L216,100.787 L216,100.784 C216,100.637 216,100.49 215.993,100.342 L215.993,100.342 Z M221.493,91.342 C221.485,91.209 221.47,91.078 221.435,90.948 C221.362,90.675 221.21,90.436 220.995,90.264 C220.781,90.092 220.52,90 220.25,90 C219.981,90 219.719,90.092 219.505,90.264 C219.29,90.436 219.138,90.675 219.065,90.948 C219.03,91.078 219.015,91.209 219.007,91.342 C219,91.49 219,91.637 219,91.784 L219,91.787 L219,124.212 L219,124.215 C219,124.363 219,124.509 219.007,124.657 C219.015,124.791 219.03,124.921 219.065,125.05 C219.138,125.324 219.29,125.563 219.505,125.735 C219.719,125.907 219.981,126 220.25,126 C220.52,126 220.781,125.907 220.995,125.735 C221.21,125.563 221.362,125.324 221.435,125.05 C221.47,124.921 221.485,124.791 221.493,124.657 C221.5,124.509 221.5,124.363 221.5,124.215 L221.5,124.212 L221.5,91.787 L221.5,91.784 C221.5,91.637 221.5,91.49 221.493,91.342 L221.493,91.342 Z M227.493,92.342 C227.485,92.209 227.47,92.078 227.435,91.948 C227.362,91.675 227.21,91.436 226.995,91.264 C226.781,91.092 226.52,91 226.25,91 C225.981,91 225.719,91.092 225.505,91.264 C225.29,91.436 225.138,91.675 225.065,91.948 C225.03,92.078 225.015,92.209 225.007,92.342 C225,92.49 225,92.637 225,92.784 L225,92.787 L225,123.212 L225,123.215 C225,123.363 225,123.509 225.007,123.657 C225.015,123.791 225.03,123.921 225.065,124.05 C225.138,124.324 225.29,124.563 225.505,124.735 C225.719,124.907 225.981,125 226.25,125 C226.52,125 226.781,124.907 226.995,124.735 C227.21,124.563 227.362,124.324 227.435,124.05 C227.47,123.921 227.485,123.791 227.493,123.657 C227.5,123.509 227.5,123.363 227.5,123.215 L227.5,123.212 L227.5,92.787 L227.5,92.784 C227.5,92.637 227.5,92.49 227.493,92.342 L227.493,92.342 Z M233.435,98.948 C233.362,98.675 233.21,98.436 232.995,98.264 C232.781,98.092 232.52,98 232.25,98 C231.981,98 231.719,98.092 231.505,98.264 C231.29,98.436 231.138,98.675 231.065,98.948 C231.03,99.078 231.015,99.209 231.007,99.342 C231,99.49 231,99.637 231,99.784 L231,116.215 C231,116.363 231,116.509 231.007,116.657 C231.015,116.791 231.03,116.921 231.065,117.05 C231.138,117.324 231.29,117.563 231.505,117.735 C231.719,117.907 231.981,118 232.25,118 C232.52,118 232.781,117.907 232.995,117.735 C233.21,117.563 233.362,117.324 233.435,117.05 C233.47,116.921 233.485,116.791 233.493,116.657 C233.5,116.509 233.5,116.363 233.5,116.215 L233.5,99.784 C233.5,99.637 233.5,99.49 233.493,99.342 C233.485,99.209 233.47,99.078 233.435,98.948 L233.435,98.948 Z M239.493,93.342 C239.485,93.209 239.47,93.078 239.435,92.948 C239.362,92.675 239.21,92.436 238.995,92.264 C238.781,92.092 238.52,92 238.25,92 C237.981,92 237.719,92.092 237.505,92.264 C237.29,92.436 237.138,92.675 237.065,92.948 C237.03,93.078 237.015,93.209 237.007,93.342 C237,93.49 237,93.637 237,93.784 L237,93.787 L237,122.212 L237,122.215 C237,122.363 237,122.509 237.007,122.657 C237.015,122.791 237.03,122.921 237.065,123.05 C237.138,123.324 237.29,123.563 237.505,123.735 C237.719,123.907 237.981,124 238.25,124 C238.52,124 238.781,123.907 238.995,123.735 C239.21,123.563 239.362,123.324 239.435,123.05 C239.47,122.921 239.485,122.791 239.493,122.657 C239.5,122.509 239.5,122.363 239.5,122.215 L239.5,122.212 L239.5,93.787 L239.5,93.784 C239.5,93.637 239.5,93.49 239.493,93.342 L239.493,93.342 Z M245.435,79.948 C245.362,79.675 245.21,79.436 244.995,79.264 C244.781,79.092 244.52,79 244.25,79 C243.981,79 243.719,79.092 243.505,79.264 C243.29,79.436 243.138,79.675 243.065,79.948 C243.03,80.078 243.015,80.209 243.007,80.342 C243,80.49 243,80.637 243,80.784 L243,135.215 C243,135.363 243,135.509 243.007,135.657 C243.015,135.791 243.03,135.921 243.065,136.05 C243.138,136.324 243.29,136.563 243.505,136.735 C243.719,136.907 243.981,137 244.25,137 C244.52,137 244.781,136.907 244.995,136.735 C245.21,136.563 245.362,136.324 245.435,136.05 C245.47,135.921 245.485,135.791 245.493,135.657 C245.5,135.509 245.5,135.363 245.5,135.215 L245.5,80.784 C245.5,80.637 245.5,80.49 245.493,80.342 C245.485,80.209 245.47,80.078 245.435,79.948 L245.435,79.948 Z M251.493,98.342 C251.485,98.209 251.47,98.078 251.435,97.948 C251.362,97.675 251.21,97.436 250.995,97.264 C250.781,97.092 250.52,97 250.25,97 C249.981,97 249.719,97.092 249.505,97.264 C249.29,97.436 249.138,97.675 249.065,97.948 C249.03,98.078 249.015,98.209 249.007,98.342 C249,98.49 249,98.637 249,98.784 L249,98.787 L249,117.212 L249,117.215 C249,117.363 249,117.509 249.007,117.657 C249.015,117.791 249.03,117.921 249.065,118.05 C249.138,118.324 249.29,118.563 249.505,118.735 C249.719,118.907 249.981,119 250.25,119 C250.52,119 250.781,118.907 250.995,118.735 C251.21,118.563 251.362,118.324 251.435,118.05 C251.47,117.921 251.485,117.791 251.493,117.657 C251.5,117.509 251.5,117.363 251.5,117.215 L251.5,117.212 L251.5,98.787 L251.5,98.784 C251.5,98.637 251.5,98.49 251.493,98.342 L251.493,98.342 Z M257.435,100.948 C257.362,100.675 257.21,100.436 256.995,100.264 C256.781,100.092 256.52,100 256.25,100 C255.981,100 255.719,100.092 255.505,100.264 C255.29,100.436 255.138,100.675 255.065,100.948 C255.03,101.078 255.015,101.209 255.007,101.342 C255,101.49 255,101.637 255,101.784 L255,114.215 C255,114.362 255,114.509 255.007,114.657 C255.015,114.791 255.03,114.921 255.065,115.05 C255.138,115.324 255.29,115.563 255.505,115.735 C255.719,115.907 255.981,116 256.25,116 C256.52,116 256.781,115.907 256.995,115.735 C257.21,115.563 257.362,115.324 257.435,115.05 C257.47,114.921 257.485,114.791 257.493,114.657 C257.5,114.509 257.5,114.362 257.5,114.215 L257.5,101.784 C257.5,101.637 257.5,101.49 257.493,101.342 C257.485,101.209 257.47,101.078 257.435,100.948 L257.435,100.948 Z M263.493,98.342 C263.485,98.209 263.47,98.078 263.435,97.948 C263.362,97.675 263.21,97.436 262.995,97.264 C262.781,97.092 262.52,97 262.25,97 C261.981,97 261.719,97.092 261.505,97.264 C261.29,97.436 261.138,97.675 261.065,97.948 C261.03,98.078 261.015,98.209 261.007,98.342 C261,98.49 261,98.637 261,98.784 L261,98.787 L261,117.212 L261,117.215 C261,117.363 261,117.509 261.007,117.657 C261.015,117.791 261.03,117.921 261.065,118.05 C261.138,118.324 261.29,118.563 261.505,118.735 C261.719,118.907 261.981,119 262.25,119 C262.52,119 262.781,118.907 262.995,118.735 C263.21,118.563 263.362,118.324 263.435,118.05 C263.47,117.921 263.485,117.791 263.493,117.657 C263.5,117.509 263.5,117.363 263.5,117.215 L263.5,117.212 L263.5,98.787 L263.5,98.784 C263.5,98.637 263.5,98.49 263.493,98.342 L263.493,98.342 Z M269.435,102.948 C269.362,102.675 269.21,102.436 268.995,102.264 C268.781,102.092 268.52,102 268.25,102 C267.981,102 267.719,102.092 267.505,102.264 C267.29,102.436 267.138,102.675 267.065,102.948 C267.03,103.078 267.015,103.209 267.007,103.342 C267,103.49 267,103.637 267,103.784 L267,112.215 C267,112.362 267,112.509 267.007,112.657 C267.015,112.791 267.03,112.921 267.065,113.051 C267.138,113.324 267.29,113.563 267.505,113.735 C267.719,113.907 267.981,114 268.25,114 C268.52,114 268.781,113.907 268.995,113.735 C269.21,113.563 269.362,113.324 269.435,113.051 C269.47,112.921 269.485,112.791 269.493,112.657 C269.5,112.509 269.5,112.362 269.5,112.215 L269.5,103.784 C269.5,103.637 269.5,103.49 269.493,103.342 C269.485,103.209 269.47,103.078 269.435,102.948 L269.435,102.948 Z M275.493,84.342 C275.485,84.209 275.47,84.078 275.435,83.948 C275.362,83.675 275.21,83.436 274.995,83.264 C274.781,83.092 274.52,83 274.25,83 C273.981,83 273.719,83.092 273.505,83.264 C273.29,83.436 273.138,83.675 273.065,83.948 C273.03,84.078 273.015,84.209 273.007,84.342 C273,84.49 273,84.637 273,84.784 L273,84.787 L273,131.212 L273,131.215 C273,131.363 273,131.509 273.007,131.657 C273.015,131.791 273.03,131.921 273.065,132.05 C273.138,132.324 273.29,132.563 273.505,132.735 C273.719,132.907 273.981,133 274.25,133 C274.52,133 274.781,132.907 274.995,132.735 C275.21,132.563 275.362,132.324 275.435,132.05 C275.47,131.921 275.485,131.791 275.493,131.657 C275.5,131.509 275.5,131.363 275.5,131.215 L275.5,131.212 L275.5,84.787 L275.5,84.784 C275.5,84.637 275.5,84.49 275.493,84.342 L275.493,84.342 Z M281.435,96.448 C281.362,96.175 281.21,95.936 280.995,95.764 C280.781,95.592 280.52,95.5 280.25,95.5 C279.981,95.5 279.719,95.592 279.505,95.764 C279.29,95.936 279.138,96.175 279.065,96.448 C279.03,96.578 279.015,96.709 279.007,96.842 C279,96.99 279,97.137 279,97.284 L279,97.287 L279,118.712 L279,118.715 C279,118.863 279,119.009 279.007,119.157 C279.015,119.291 279.03,119.421 279.065,119.55 C279.138,119.824 279.29,120.063 279.505,120.235 C279.719,120.407 279.981,120.5 280.25,120.5 C280.52,120.5 280.781,120.407 280.995,120.235 C281.21,120.063 281.362,119.824 281.435,119.55 C281.47,119.421 281.485,119.291 281.493,119.157 C281.5,119.009 281.5,118.863 281.5,118.715 L281.5,97.284 C281.5,97.137 281.5,96.99 281.493,96.842 C281.485,96.709 281.47,96.578 281.435,96.448 L281.435,96.448 Z M287.493,104.342 C287.485,104.209 287.47,104.078 287.435,103.948 C287.362,103.675 287.21,103.436 286.995,103.264 C286.781,103.092 286.52,103 286.25,103 C285.981,103 285.719,103.092 285.505,103.264 C285.29,103.436 285.138,103.675 285.065,103.948 C285.03,104.078 285.015,104.209 285.007,104.342 C285,104.49 285,104.637 285,104.784 L285,104.787 L285,111.212 L285,111.215 C285,111.362 285,111.509 285.007,111.657 C285.015,111.791 285.03,111.921 285.065,112.051 C285.138,112.324 285.29,112.563 285.505,112.735 C285.719,112.907 285.981,113 286.25,113 C286.52,113 286.781,112.907 286.995,112.735 C287.21,112.563 287.362,112.324 287.435,112.051 C287.47,111.921 287.485,111.791 287.493,111.657 C287.5,111.509 287.5,111.362 287.5,111.215 L287.5,111.212 L287.5,104.787 L287.5,104.784 C287.5,104.637 287.5,104.49 287.493,104.342 L287.493,104.342 Z M292.935,104.948 C292.862,104.675 292.71,104.436 292.495,104.264 C292.281,104.092 292.02,104 291.75,104 C291.481,104 291.219,104.092 291.005,104.264 C290.79,104.436 290.638,104.675 290.565,104.948 C290.53,105.078 290.515,105.209 290.507,105.342 C290.5,105.49 290.5,105.637 290.5,105.784 L290.5,110.215 C290.5,110.362 290.5,110.509 290.507,110.657 C290.515,110.791 290.53,110.921 290.565,111.051 C290.638,111.324 290.79,111.563 291.005,111.735 C291.219,111.907 291.481,112 291.75,112 C292.02,112 292.281,111.907 292.495,111.735 C292.71,111.563 292.862,111.324 292.935,111.051 C292.97,110.921 292.985,110.791 292.993,110.657 C293,110.509 293,110.362 293,110.215 L293,105.784 C293,105.637 293,105.49 292.993,105.342 C292.985,105.209 292.97,105.078 292.935,104.948 L292.935,104.948 Z M298.993,96.342 C298.985,96.209 298.97,96.078 298.935,95.948 C298.862,95.675 298.71,95.436 298.495,95.264 C298.281,95.092 298.02,95 297.75,95 C297.481,95 297.219,95.092 297.005,95.264 C296.79,95.436 296.638,95.675 296.565,95.948 C296.53,96.078 296.515,96.209 296.507,96.342 C296.5,96.49 296.5,96.637 296.5,96.784 L296.5,96.787 L296.5,119.212 L296.5,119.215 C296.5,119.363 296.5,119.509 296.507,119.657 C296.515,119.791 296.53,119.921 296.565,120.05 C296.638,120.324 296.79,120.563 297.005,120.735 C297.219,120.907 297.481,121 297.75,121 C298.02,121 298.281,120.907 298.495,120.735 C298.71,120.563 298.862,120.324 298.935,120.05 C298.97,119.921 298.985,119.791 298.993,119.657 C299,119.509 299,119.363 299,119.215 L299,119.212 L299,96.787 L299,96.784 C299,96.637 299,96.49 298.993,96.342 L298.993,96.342 Z M304.935,97.948 C304.862,97.675 304.71,97.436 304.495,97.264 C304.281,97.092 304.02,97 303.75,97 C303.481,97 303.219,97.092 303.005,97.264 C302.79,97.436 302.638,97.675 302.565,97.948 C302.53,98.078 302.515,98.209 302.507,98.342 C302.5,98.49 302.5,98.637 302.5,98.784 L302.5,117.215 C302.5,117.363 302.5,117.509 302.507,117.657 C302.515,117.791 302.53,117.921 302.565,118.05 C302.638,118.324 302.79,118.563 303.005,118.735 C303.219,118.907 303.481,119 303.75,119 C304.02,119 304.281,118.907 304.495,118.735 C304.71,118.563 304.862,118.324 304.935,118.05 C304.97,117.921 304.985,117.791 304.993,117.657 C305,117.509 305,117.363 305,117.215 L305,98.784 C305,98.637 305,98.49 304.993,98.342 C304.985,98.209 304.97,98.078 304.935,97.948 L304.935,97.948 Z M310.993,99.342 C310.985,99.209 310.97,99.078 310.935,98.948 C310.862,98.675 310.71,98.436 310.495,98.264 C310.281,98.092 310.02,98 309.75,98 C309.481,98 309.219,98.092 309.005,98.264 C308.79,98.436 308.638,98.675 308.565,98.948 C308.53,99.078 308.515,99.209 308.507,99.342 C308.5,99.49 308.5,99.637 308.5,99.784 L308.5,99.787 L308.5,116.212 L308.5,116.215 C308.5,116.363 308.5,116.509 308.507,116.657 C308.515,116.791 308.53,116.921 308.565,117.05 C308.638,117.324 308.79,117.563 309.005,117.735 C309.219,117.907 309.481,118 309.75,118 C310.02,118 310.281,117.907 310.495,117.735 C310.71,117.563 310.862,117.324 310.935,117.05 C310.97,116.921 310.985,116.791 310.993,116.657 C311,116.509 311,116.363 311,116.215 L311,116.212 L311,99.787 L311,99.784 C311,99.637 311,99.49 310.993,99.342 L310.993,99.342 Z M316.935,101.448 C316.862,101.175 316.71,100.936 316.495,100.764 C316.281,100.592 316.02,100.5 315.75,100.5 C315.481,100.5 315.219,100.592 315.005,100.764 C314.79,100.936 314.638,101.175 314.565,101.448 C314.53,101.578 314.515,101.709 314.507,101.842 C314.5,101.99 314.5,102.137 314.5,102.284 L314.5,113.715 C314.5,113.862 314.5,114.009 314.507,114.157 C314.515,114.291 314.53,114.421 314.565,114.551 C314.638,114.824 314.79,115.063 315.005,115.235 C315.219,115.407 315.481,115.5 315.75,115.5 C316.02,115.5 316.281,115.407 316.495,115.235 C316.71,115.063 316.862,114.824 316.935,114.551 C316.97,114.421 316.985,114.291 316.993,114.157 C317,114.009 317,113.862 317,113.715 L317,102.284 C317,102.137 317,101.99 316.993,101.842 C316.985,101.709 316.97,101.578 316.935,101.448 L316.935,101.448 Z M322.992,103.342 C322.985,103.209 322.97,103.078 322.936,102.948 C322.862,102.675 322.711,102.436 322.495,102.264 C322.281,102.092 322.02,102 321.75,102 C321.48,102 321.219,102.092 321.005,102.264 C320.79,102.436 320.638,102.675 320.565,102.948 C320.53,103.078 320.515,103.209 320.507,103.342 C320.5,103.49 320.5,103.637 320.5,103.784 L320.5,103.787 L320.5,112.212 L320.5,112.215 C320.5,112.362 320.5,112.509 320.507,112.657 C320.515,112.791 320.53,112.921 320.565,113.051 C320.638,113.324 320.79,113.563 321.005,113.735 C321.219,113.907 321.48,114 321.75,114 C322.02,114 322.281,113.907 322.495,113.735 C322.711,113.563 322.862,113.324 322.936,113.051 C322.97,112.921 322.985,112.791 322.992,112.657 C323.001,112.509 323,112.362 323,112.215 L323,112.212 L323,103.787 L323,103.784 C323,103.637 323.001,103.49 322.992,103.342 L322.992,103.342 Z M328.936,106.948 C328.862,106.675 328.711,106.436 328.495,106.264 C328.281,106.092 328.02,106 327.75,106 C327.48,106 327.219,106.092 327.005,106.264 C326.789,106.436 326.638,106.675 326.564,106.948 C326.53,107.078 326.515,107.209 326.508,107.342 C326.499,107.49 326.5,107.637 326.5,107.784 L326.5,107.787 L326.5,108.212 L326.5,108.215 C326.5,108.362 326.499,108.509 326.508,108.657 C326.515,108.791 326.53,108.921 326.564,109.051 C326.638,109.324 326.789,109.563 327.005,109.735 C327.219,109.907 327.48,110 327.75,110 C328.02,110 328.281,109.907 328.495,109.735 C328.711,109.563 328.862,109.324 328.936,109.051 C328.97,108.921 328.985,108.791 328.992,108.657 C329.001,108.509 329,108.362 329,108.215 L329,107.784 C329,107.637 329.001,107.49 328.992,107.342 C328.985,107.209 328.97,107.078 328.936,106.948 L328.936,106.948 Z M334.992,105.342 C334.985,105.209 334.97,105.078 334.936,104.948 C334.862,104.675 334.711,104.436 334.495,104.264 C334.281,104.092 334.02,104 333.75,104 C333.48,104 333.219,104.092 333.005,104.264 C332.789,104.436 332.638,104.675 332.564,104.948 C332.53,105.078 332.515,105.209 332.508,105.342 C332.499,105.49 332.5,105.637 332.5,105.784 L332.5,105.787 L332.5,110.212 L332.5,110.215 C332.5,110.362 332.499,110.509 332.508,110.657 C332.515,110.791 332.53,110.921 332.564,111.051 C332.638,111.324 332.789,111.563 333.005,111.735 C333.219,111.907 333.48,112 333.75,112 C334.02,112 334.281,111.907 334.495,111.735 C334.711,111.563 334.862,111.324 334.936,111.051 C334.97,110.921 334.985,110.791 334.992,110.657 C335.001,110.509 335,110.362 335,110.215 L335,110.212 L335,105.787 L335,105.784 C335,105.637 335.001,105.49 334.992,105.342 L334.992,105.342 Z M340.992,105.342 C340.985,105.209 340.97,105.078 340.936,104.948 C340.862,104.675 340.711,104.436 340.495,104.264 C340.281,104.092 340.02,104 339.75,104 C339.48,104 339.219,104.092 339.005,104.264 C338.789,104.436 338.638,104.675 338.564,104.948 C338.53,105.078 338.515,105.209 338.508,105.342 C338.499,105.49 338.5,105.637 338.5,105.784 L338.5,105.787 L338.5,110.212 L338.5,110.215 C338.5,110.362 338.499,110.509 338.508,110.657 C338.515,110.791 338.53,110.921 338.564,111.051 C338.638,111.324 338.789,111.563 339.005,111.735 C339.219,111.907 339.48,112 339.75,112 C340.02,112 340.281,111.907 340.495,111.735 C340.711,111.563 340.862,111.324 340.936,111.051 C340.97,110.921 340.985,110.791 340.992,110.657 C341.001,110.509 341,110.362 341,110.215 L341,110.212 L341,105.787 L341,105.784 C341,105.637 341.001,105.49 340.992,105.342 L340.992,105.342 Z M346.936,106.448 C346.862,106.175 346.711,105.936 346.495,105.764 C346.281,105.592 346.02,105.5 345.75,105.5 C345.48,105.5 345.219,105.592 345.005,105.764 C344.789,105.936 344.638,106.175 344.564,106.448 C344.53,106.578 344.515,106.709 344.508,106.842 C344.499,106.99 344.5,107.137 344.5,107.284 L344.5,107.287 L344.5,108.712 L344.5,108.715 C344.5,108.862 344.499,109.009 344.508,109.157 C344.515,109.291 344.53,109.421 344.564,109.551 C344.638,109.824 344.789,110.063 345.005,110.235 C345.219,110.407 345.48,110.5 345.75,110.5 C346.02,110.5 346.281,110.407 346.495,110.235 C346.711,110.063 346.862,109.824 346.936,109.551 C346.97,109.421 346.985,109.291 346.992,109.157 C347.001,109.009 347,108.862 347,108.715 L347,107.284 C347,107.137 347.001,106.99 346.992,106.842 C346.985,106.709 346.97,106.578 346.936,106.448 L346.936,106.448 Z M352.436,106.948 C352.362,106.675 352.211,106.436 351.995,106.264 C351.781,106.092 351.52,106 351.25,106 C350.98,106 350.719,106.092 350.505,106.264 C350.289,106.436 350.138,106.675 350.064,106.948 C350.03,107.078 350.015,107.209 350.008,107.342 C349.999,107.49 350,107.637 350,107.784 L350,108.215 C350,108.362 349.999,108.509 350.008,108.657 C350.015,108.791 350.03,108.921 350.064,109.051 C350.138,109.324 350.289,109.563 350.505,109.735 C350.719,109.907 350.98,110 351.25,110 C351.52,110 351.781,109.907 351.995,109.735 C352.211,109.563 352.362,109.324 352.436,109.051 C352.47,108.921 352.485,108.791 352.492,108.657 C352.501,108.509 352.5,108.362 352.5,108.215 L352.5,107.784 C352.5,107.637 352.501,107.49 352.492,107.342 C352.485,107.209 352.47,107.078 352.436,106.948 L352.436,106.948 Z M357.995,107.264 C357.781,107.092 357.52,107 357.25,107 C356.98,107 356.719,107.092 356.505,107.264 C356.289,107.436 356.138,107.675 356.064,107.948 C356.061,107.965 356.062,107.983 356.058,108 C356.062,108.017 356.061,108.034 356.064,108.051 C356.138,108.324 356.289,108.563 356.505,108.735 C356.719,108.907 356.98,109 357.25,109 C357.52,109 357.781,108.907 357.995,108.735 C358.211,108.563 358.362,108.324 358.436,108.051 C358.439,108.034 358.438,108.017 358.442,108 C358.438,107.983 358.439,107.965 358.436,107.948 C358.362,107.675 358.211,107.436 357.995,107.264 L357.995,107.264 Z M356,107.215 L356,107.212 L356,108.787 L356,108.784 C356,108.637 355.999,108.49 356.008,108.342 C356.014,108.226 356.031,108.113 356.058,108 C356.031,107.886 356.014,107.773 356.008,107.657 C355.999,107.509 356,107.362 356,107.215 L356,107.215 Z M358.492,107.657 C358.486,107.773 358.469,107.886 358.442,108 C358.469,108.113 358.486,108.226 358.492,108.342 C358.501,108.49 358.5,108.637 358.5,108.784 L358.5,108.787 L358.5,107.212 L358.5,107.215 C358.5,107.362 358.501,107.509 358.492,107.657 L358.492,107.657 Z M363.995,107.264 C363.781,107.092 363.52,107 363.25,107 C362.98,107 362.719,107.092 362.505,107.264 C362.289,107.436 362.138,107.675 362.064,107.948 C362.061,107.965 362.062,107.983 362.058,108 C362.062,108.017 362.061,108.034 362.064,108.051 C362.138,108.324 362.289,108.563 362.505,108.735 C362.719,108.907 362.98,109 363.25,109 C363.52,109 363.781,108.907 363.995,108.735 C364.211,108.563 364.362,108.324 364.436,108.051 C364.439,108.034 364.438,108.017 364.442,108 C364.438,107.983 364.439,107.965 364.436,107.948 C364.362,107.675 364.211,107.436 363.995,107.264 L363.995,107.264 Z M364.442,108 C364.469,108.113 364.486,108.226 364.492,108.342 C364.501,108.49 364.5,108.637 364.5,108.784 L364.5,107.215 C364.5,107.362 364.501,107.509 364.492,107.657 C364.486,107.773 364.469,107.886 364.442,108 L364.442,108 Z M362,107.215 L362,108.784 C362,108.637 361.999,108.49 362.008,108.342 C362.014,108.226 362.031,108.113 362.058,108 C362.031,107.886 362.014,107.773 362.008,107.657 C361.999,107.509 362,107.362 362,107.215 L362,107.215 Z M369.995,107.264 C369.781,107.092 369.52,107 369.25,107 C368.98,107 368.719,107.092 368.505,107.264 C368.289,107.436 368.138,107.675 368.064,107.948 C368.061,107.965 368.062,107.983 368.058,108 C368.062,108.017 368.061,108.034 368.064,108.051 C368.138,108.324 368.289,108.563 368.505,108.735 C368.719,108.907 368.98,109 369.25,109 C369.52,109 369.781,108.907 369.995,108.735 C370.211,108.563 370.362,108.324 370.436,108.051 C370.439,108.034 370.438,108.017 370.442,108 C370.438,107.983 370.439,107.965 370.436,107.948 C370.362,107.675 370.211,107.436 369.995,107.264 L369.995,107.264 Z M368,107.215 L368,107.212 L368,108.787 L368,108.784 C368,108.637 367.999,108.49 368.008,108.342 C368.014,108.226 368.031,108.113 368.058,108 C368.031,107.886 368.014,107.773 368.008,107.657 C367.999,107.509 368,107.362 368,107.215 L368,107.215 Z M370.5,107.215 C370.5,107.362 370.501,107.509 370.492,107.657 C370.486,107.773 370.469,107.886 370.442,108 C370.469,108.113 370.486,108.226 370.492,108.342 C370.501,108.49 370.5,108.637 370.5,108.784 L370.5,108.787 L370.5,107.212 L370.5,107.215 Z M7.495,108 C7.497,108.094 7.5,108.189 7.5,108.284 L7.5,108.287 L7.5,107.712 L7.5,107.715 C7.5,107.81 7.497,107.905 7.495,108 L7.495,108 Z M5,107.712 L5,108.287 L5,108.284 C5,108.189 5.003,108.094 5.005,108 C5.003,107.905 5,107.81 5,107.715 L5,107.712 Z M7.435,107.448 C7.362,107.175 7.21,106.936 6.995,106.764 C6.781,106.592 6.52,106.5 6.25,106.5 C5.981,106.5 5.719,106.592 5.505,106.764 C5.29,106.936 5.138,107.175 5.065,107.448 C5.03,107.578 5.015,107.709 5.007,107.842 C5.004,107.895 5.006,107.947 5.005,108 C5.006,108.052 5.004,108.105 5.007,108.157 C5.015,108.291 5.03,108.421 5.065,108.551 C5.138,108.824 5.29,109.063 5.505,109.235 C5.719,109.407 5.981,109.5 6.25,109.5 C6.52,109.5 6.781,109.407 6.995,109.235 C7.21,109.063 7.362,108.824 7.435,108.551 C7.47,108.421 7.485,108.291 7.493,108.157 C7.496,108.105 7.494,108.052 7.495,108 C7.494,107.947 7.496,107.895 7.493,107.842 C7.485,107.709 7.47,107.578 7.435,107.448 L7.435,107.448 Z" id="audio-waves"></path>
                </g>
            </g>
        </g>
    </g>
</svg>