<?xml version="1.0" encoding="UTF-8"?>
<svg width="20px" height="20px" viewBox="0 0 20 20" version="1.1" xmlns="http://www.w3.org/2000/svg" xmlns:xlink="http://www.w3.org/1999/xlink">
    <!-- Generator: Sketch 47.1 (45422) - http://www.bohemiancoding.com/sketch -->
    <title>icon</title>
    <desc>Created with Sketch.</desc>
    <defs></defs>
    <g id="UI-Elements" stroke="none" stroke-width="1" fill="none" fill-rule="evenodd">
        <g id="UI-Elements---System" transform="translate(-83.000000, -1432.000000)" fill="#FFFFFF">
            <g id="Keyboard-Dark" transform="translate(20.000000, 800.000000)">
                <g id="Keyboard-Alphabetic" transform="translate(0.000000, 451.000000)">
                    <g id="row" transform="translate(5.000000, 170.000000)">
                        <g id="key" transform="translate(47.000000, 0.000000)">
                            <path d="M20.75,30.5 C15.3652237,30.5 11,26.1347763 11,20.75 C11,15.3652237 15.3652237,11 20.75,11 C26.1347763,11 30.5,15.3652237 30.5,20.75 C30.5,26.1347763 26.1347763,30.5 20.75,30.5 Z M20.75,29.5 C25.5824916,29.5 29.5,25.5824916 29.5,20.75 C29.5,15.9175084 25.5824916,12 20.75,12 C15.9175084,12 12,15.9175084 12,20.75 C12,25.5824916 15.9175084,29.5 20.75,29.5 Z M17.75,19 C17.0596441,19 16.5,18.4403559 16.5,17.75 C16.5,17.0596441 17.0596441,16.5 17.75,16.5 C18.4403559,16.5 19,17.0596441 19,17.75 C19,18.4403559 18.4403559,19 17.75,19 Z M20.75,27.5 C17.0220779,27.5 14,24.0759278 14,22 C14,20.0590821 17.0220779,22 20.75,22 C24.4779221,22 27.5,20.0959472 27.5,22 C27.5,24.022461 24.4779221,27.5 20.75,27.5 Z M23.75,19 C23.0596441,19 22.5,18.4403559 22.5,17.75 C22.5,17.0596441 23.0596441,16.5 23.75,16.5 C24.4403559,16.5 25,17.0596441 25,17.75 C25,18.4403559 24.4403559,19 23.75,19 Z M15.5,22.5 C15.5,22.7680664 15.6578046,23.1490438 15.8524665,23.3328986 C15.8524665,23.3328986 16.5467529,24.5 20.7947998,24.5 C25.0428467,24.5 25.6483639,23.3479004 25.6483639,23.3479004 C25.8503319,23.1720691 26,22.7761424 26,22.5 C26,22.2319336 25.7926706,22.0842118 25.5369168,22.1880924 C25.5369168,22.1880924 23.880188,23 20.8631592,23 C17.8461304,23 15.9652087,22.1741867 15.9652087,22.1741867 C15.6994155,22.0784683 15.5,22.2238576 15.5,22.5 Z" id="icon"></path>
                        </g>
                    </g>
                </g>
            </g>
        </g>
    </g>
</svg>