<?xml version="1.0" encoding="UTF-8"?>
<svg width="22px" height="16px" viewBox="0 0 22 16" version="1.1" xmlns="http://www.w3.org/2000/svg" xmlns:xlink="http://www.w3.org/1999/xlink">
    <!-- Generator: Sketch 47.1 (45422) - http://www.bohemiancoding.com/sketch -->
    <title>Group</title>
    <desc>Created with Sketch.</desc>
    <defs></defs>
    <g id="Symbols" stroke="none" stroke-width="1" fill="none" fill-rule="evenodd">
        <g id="System/Light-Keyboard-Alphabetic" transform="translate(-337.000000, -130.000000)" stroke="#000000">
            <g id="row" transform="translate(5.000000, 117.000000)">
                <g id="key" transform="translate(323.000000, 0.000000)">
                    <g id="Group" transform="translate(9.000000, 13.000000)">
                        <path d="M0.906850261,8.0003385 L0.638546406,7.73779039 C0.711340133,7.80962296 0.75,7.90467775 0.75,8.00034175 C0.75,8.09619751 0.711556619,8.19084689 0.640829671,8.2606493 L0.906850261,8.0003385 Z M14.999351,0.750315799 L16.98,0.750341754 L16.9796214,-0.74965815 L14.9986214,-0.74865815 L14.999351,0.750315799 Z M0.906850261,8.0003385 L8.02354641,1.03639312 C8.16085214,0.898864496 8.57538283,0.74336571 8.98646541,0.750237003 L14.999351,0.750315799 L14.9993515,0.751341672 L17.1333515,0.750341672 C17.4101564,0.750341754 17.5332873,0.750507364 17.6864678,0.751330915 C17.8531132,0.752396127 18.0001151,0.754512955 18.1403369,0.758096899 C18.5185026,0.768634288 18.7945395,0.790862738 19.0489747,0.836540276 C19.3321942,0.88747012 19.5785777,0.96781465 19.8123621,1.08677738 C20.0475378,1.20648223 20.2628821,1.36288407 20.4496699,1.54967184 C20.6365458,1.73693436 20.7930707,1.95244821 20.9116616,2.18618695 C21.0315701,2.4210917 21.1118368,2.66703953 21.1628062,2.95089334 C21.2084818,3.20494015 21.2307076,3.48084339 21.2412909,3.86072808 C21.2444425,3.98371411 21.2458229,4.08529692 21.2480344,4.31602992 C21.2488344,4.46605443 21.249,4.58918537 21.249,4.86634175 L21.249,11.1343418 C21.2489999,11.2736111 21.2489999,11.2736111 21.2488757,11.4120823 C21.2486277,11.5502173 21.2486277,11.5502173 21.2480108,11.6878096 C21.2469137,11.8015294 21.2469137,11.8015294 21.2455066,11.916409 C21.2438076,12.0302906 21.2430182,12.0727959 21.2412449,12.1421787 C21.2307033,12.5199353 21.2084701,12.7959312 21.1628015,13.0503165 C21.1118491,13.3336613 21.0315074,13.579839 20.9122778,13.8137848 C20.7930462,14.0487836 20.6366269,14.2640546 20.4496699,14.4510117 C20.2632841,14.6377813 20.0483508,14.7937875 19.8122851,14.9139453 C19.5791339,15.0329607 19.3334107,15.1129946 19.0487607,15.1641817 C18.7927612,15.21014 18.513369,15.2327409 18.1397122,15.2426028 C18.0001151,15.2461706 17.8531132,15.2482874 17.6857078,15.2493571 C17.5332873,15.2501761 17.4101564,15.2503418 17.133,15.2503418 L8.999,15.2503418 C8.57541958,15.2576157 8.16114659,15.1021141 8.02990559,14.9705878 L0.906850261,8.0003385 Z" id="backspace" stroke-width="1.5"></path>
                        <path d="M17.0345,10.8288418 C17.2295,11.0243418 17.2295,11.3408418 17.0345,11.5363418 C16.839,11.7313418 16.5225,11.7313418 16.327,11.5363418 L13.499,8.70734175 L10.6705,11.5363418 C10.475,11.7313418 10.1585,11.7313418 9.963,11.5363418 C9.768,11.3408418 9.768,11.0243418 9.963,10.8288418 L12.792,8.00034175 L9.963,5.17234175 C9.768,4.97684175 9.768,4.66034175 9.963,4.46484175 C10.1585,4.26984175 10.475,4.26984175 10.6705,4.46484175 L13.499,7.29334175 L16.327,4.46484175 C16.5225,4.26984175 16.839,4.26984175 17.0345,4.46484175 C17.2295,4.66034175 17.2295,4.97684175 17.0345,5.17234175 L14.206,8.00034175 L17.0345,10.8288418 Z" id="Path" stroke-width="0.75" fill="#000000"></path>
                    </g>
                </g>
            </g>
        </g>
    </g>
</svg>