<?xml version="1.0" encoding="UTF-8"?>
<svg width="27px" height="27px" viewBox="0 0 27 27" version="1.1" xmlns="http://www.w3.org/2000/svg" xmlns:xlink="http://www.w3.org/1999/xlink">
    <!-- Generator: Sketch 47.1 (45422) - http://www.bohemiancoding.com/sketch -->
    <title>Emoji</title>
    <desc>Created with Sketch.</desc>
    <defs></defs>
    <g id="UI-Elements" stroke="none" stroke-width="1" fill="none" fill-rule="evenodd">
        <g id="UI-Elements---System" transform="translate(-45.000000, -1706.000000)" fill="#E7E7E7">
            <g id="Keyboard-Dark" transform="translate(20.000000, 945.000000)">
                <g id="Keyboard-Alphabetic" transform="translate(0.000000, 521.000000)">
                    <g id="Keys" transform="translate(3.000000, 8.000000)">
                        <path d="M35.25,232 C42.5677729,232 48.5,237.932227 48.5,245.25 C48.5,252.567773 42.5677729,258.5 35.25,258.5 C27.9322271,258.5 22,252.567773 22,245.25 C22,237.932227 27.9322271,232 35.25,232 Z M31.0583625,239.502813 C30.64882,239.497933 30.2544257,239.657489 29.9634794,239.945758 C29.6725331,240.234027 29.5093379,240.62693 29.5104312,241.0365 C29.5104312,241.891399 30.2034637,242.584431 31.0583625,242.584431 C31.9132613,242.584431 32.6062938,241.891399 32.6062938,241.0365 C32.6073871,240.62693 32.4441919,240.234027 32.1532456,239.945758 C31.8622993,239.657489 31.467905,239.497933 31.0583625,239.502813 Z M44.0801313,247.532312 C43.3745688,251.345 39.6947125,254.528312 35.2483438,254.528312 C30.8374188,254.528312 27.1790938,251.391375 26.432125,247.62175 C26.2807438,246.681 27.0512313,246.459062 27.777,246.634625 C30.2049194,247.336643 32.7228025,247.678165 35.25,247.64825 C37.7714848,247.677485 40.283647,247.337099 42.7064375,246.637937 C43.412,246.459063 44.1675812,246.661125 44.0801313,247.532312 Z M41.6848625,248.062312 C41.6159625,248.088812 41.5460688,248.108687 41.4755125,248.131875 C41.468225,248.135188 41.701425,248.059 41.6944687,248.062312 C39.5994129,248.639068 37.43378,248.918944 35.2609313,248.89375 C32.6679063,248.89375 30.348825,248.605562 28.7528625,248.0325 C27.5958063,247.688 27.8177438,249.049437 28.6309625,249.466812 C30.7113906,250.413917 32.9748865,250.89118 35.2606,250.864687 C37.9795,250.864687 40.4022625,250.232 42.0025313,249.413812 C42.7597687,248.926875 42.9094937,247.62175 41.6848625,248.062312 L41.6848625,248.062312 Z M39.45025,239.502812 C39.0406773,239.497934 38.6462495,239.65748 38.3552509,239.945739 C38.0642522,240.233998 37.900983,240.626899 37.9019875,241.0365 C37.893818,241.594979 38.1870838,242.114566 38.6694248,242.39619 C39.1517659,242.677814 39.7484029,242.677814 40.2307439,242.39619 C40.713085,242.114566 41.0063508,241.594979 40.9981813,241.0365 C40.9991846,240.626958 40.8359607,240.234108 40.5450342,239.945858 C40.2541076,239.657609 39.8597657,239.498023 39.45025,239.502813 L39.45025,239.502812 Z" id="Emoji"></path>
                    </g>
                </g>
            </g>
        </g>
    </g>
</svg>