<?xml version="1.0" encoding="UTF-8"?>
<svg width="60px" height="60px" viewBox="0 0 60 60" version="1.1" xmlns="http://www.w3.org/2000/svg" xmlns:xlink="http://www.w3.org/1999/xlink">
    <!-- Generator: Sketch 47.1 (45422) - http://www.bohemiancoding.com/sketch -->
    <title>app icon</title>
    <desc>Created with Sketch.</desc>
    <defs></defs>
    <g id="UI-Elements" stroke="none" stroke-width="1" fill="none" fill-rule="evenodd" fill-opacity="0.5">
        <g id="UI-Elements---Views" transform="translate(-1470.000000, -474.000000)" fill="#FF0000">
            <g id="Activity-View" transform="translate(1205.000000, 120.000000)">
                <g id="Apps" transform="translate(265.000000, 354.000000)">
                    <path d="M60,18.7687 C60,18.0517 60,17.3357 59.996,16.6187 C59.992,16.0157 59.985,15.4117 59.969,14.8087 C59.934,13.4937 59.856,12.1677 59.623,10.8677 C59.386,9.5477 58.999,8.3197 58.388,7.1207 C57.788,5.9417 57.005,4.8647 56.07,3.9297 C55.135,2.9957 54.058,2.2117 52.879,1.6117 C51.681,1.0017 50.453,0.6147 49.134,0.3777 C47.833,0.1437 46.507,0.0667 45.192,0.0307 C44.588,0.0147 43.985,0.0077 43.381,0.0037 C42.665,-0.0003 41.948,-0.0003 41.231,-0.0003 L18.769,-0.0003 C18.053,-0.0003 17.336,-0.0003 16.62,0.0037 C16.016,0.0077 15.412,0.0147 14.809,0.0307 C13.494,0.0667 12.167,0.1437 10.867,0.3777 C9.548,0.6147 8.32,1.0017 7.122,1.6117 C5.943,2.2117 4.865,2.9957 3.931,3.9297 C2.996,4.8647 2.213,5.9417 1.613,7.1207 C1.002,8.3197 0.615,9.5477 0.378,10.8677 C0.145,12.1677 0.067,13.4937 0.032,14.8087 C0.016,15.4117 0.008,16.0157 0.005,16.6187 C0,17.3357 0,18.0517 0,18.7687 L0,41.2307 C0,41.9477 0,42.6637 0.005,43.3807 C0.008,43.9837 0.016,44.5877 0.032,45.1907 C0.067,46.5057 0.145,47.8317 0.378,49.1317 C0.615,50.4517 1.002,51.6807 1.613,52.8797 C2.213,54.0577 2.996,55.1347 3.931,56.0687 C4.865,57.0047 5.943,57.7877 7.122,58.3877 C8.32,58.9977 9.548,59.3847 10.867,59.6217 C12.167,59.8547 13.494,59.9337 14.809,59.9687 C15.412,59.9847 16.016,59.9917 16.62,59.9957 C17.336,59.9997 18.053,59.9997 18.769,59.9997 L41.231,59.9997 C41.948,59.9997 42.665,59.9997 43.381,59.9957 C43.985,59.9917 44.588,59.9847 45.192,59.9687 C46.507,59.9337 47.833,59.8547 49.134,59.6217 C50.453,59.3847 51.681,58.9977 52.879,58.3877 C54.058,57.7877 55.135,57.0047 56.07,56.0687 C57.005,55.1347 57.788,54.0577 58.388,52.8797 C58.999,51.6807 59.386,50.4517 59.623,49.1317 C59.856,47.8317 59.934,46.5057 59.969,45.1907 C59.985,44.5877 59.992,43.9837 59.996,43.3807 C60,42.6637 60,41.9477 60,41.2307 L60,18.7687 Z" id="app-icon"></path>
                </g>
            </g>
        </g>
    </g>
</svg>