<?xml version="1.0" encoding="UTF-8"?>
<svg width="13px" height="13px" viewBox="0 0 13 13" version="1.1" xmlns="http://www.w3.org/2000/svg" xmlns:xlink="http://www.w3.org/1999/xlink">
    <!-- Generator: Sketch 47 (45396) - http://www.bohemiancoding.com/sketch -->
    <title>close</title>
    <desc>Created with Sketch.</desc>
    <defs></defs>
    <g id="Design-Templates---System" stroke="none" stroke-width="1" fill="none" fill-rule="evenodd">
        <g id="Notification---Expanded" transform="translate(-338.000000, -68.000000)" fill="#979797">
            <g id="Views/Notification/Expanded" transform="translate(8.000000, 48.000000)">
                <g id="Header" transform="translate(0.000000, 15.000000)">
                    <path d="M335.313708,10.3137085 L329.31458,10.3137085 C328.758339,10.3137085 328.313708,10.7614237 328.313708,11.3137085 C328.313708,11.8698437 328.761814,12.3137085 329.31458,12.3137085 L335.313708,12.3137085 L335.313708,18.3128368 C335.313708,18.8690776 335.761424,19.3137085 336.313708,19.3137085 C336.869844,19.3137085 337.313708,18.865603 337.313708,18.3128368 L337.313708,12.3137085 L343.312837,12.3137085 C343.869078,12.3137085 344.313708,11.8659932 344.313708,11.3137085 C344.313708,10.7575733 343.865603,10.3137085 343.312837,10.3137085 L337.313708,10.3137085 L337.313708,4.31458016 C337.313708,3.75833936 336.865993,3.3137085 336.313708,3.3137085 C335.757573,3.3137085 335.313708,3.761814 335.313708,4.31458016 L335.313708,10.3137085 Z" id="close" transform="translate(336.313708, 11.313708) rotate(-45.000000) translate(-336.313708, -11.313708) "></path>
                </g>
            </g>
        </g>
    </g>
</svg>