<?xml version="1.0" encoding="UTF-8"?>
<svg width="15px" height="25px" viewBox="0 0 15 25" version="1.1" xmlns="http://www.w3.org/2000/svg" xmlns:xlink="http://www.w3.org/1999/xlink">
    <!-- Generator: Sketch 47.1 (45422) - http://www.bohemiancoding.com/sketch -->
    <title>Dictation</title>
    <desc>Created with Sketch.</desc>
    <defs></defs>
    <g id="Symbols" stroke="none" stroke-width="1" fill="none" fill-rule="evenodd">
        <g id="System/Light-Keyboard-Alphabetic" transform="translate(-330.000000, -241.000000)" fill="#50555C">
            <g id="Keys" transform="translate(3.000000, 8.000000)">
                <path d="M338.466667,257.999346 L338.466667,258 L330.53,258 L330.53,257.99947 C330.520043,257.999822 330.510042,258 330.5,258 C330.039763,258 329.666667,257.626904 329.666667,257.166667 C329.666667,256.706429 330.039763,256.333333 330.5,256.333333 L330.5,256.333333 C330.510042,256.333333 330.520043,256.333511 330.53,256.333863 L330.53,256.323333 L333.676667,256.323333 L333.676667,253.79 C329.867266,253.34729 326.995362,250.118369 327,246.283333 C327,246.246667 327.005667,246.213333 327.006333,246.18 L327.006333,244.269916 C327.002153,244.236086 327,244.201628 327,244.166667 C327,243.706429 327.373096,243.333333 327.833333,243.333333 C328.293571,243.333333 328.666667,243.706429 328.666667,244.166667 C328.666667,244.194394 328.665312,244.221805 328.662667,244.248837 L328.662667,246.543333 L328.658333,246.543333 L328.658333,246.55 C328.658333,246.58 328.662333,246.61 328.662667,246.64 L328.662667,246.953333 L328.678333,246.953333 C328.926032,249.917035 331.351416,252.226993 334.323667,252.33 L334.660333,252.33 C337.633535,252.228691 340.060251,249.91801 340.307,246.953333 L340.327,246.953333 L340.327,244.176667 L340.333392,244.176623 C340.333353,244.173309 340.333333,244.16999 340.333333,244.166667 C340.333333,243.706429 340.706429,243.333333 341.166667,243.333333 C341.626904,243.333333 342,243.706429 342,244.166667 C342,244.190654 341.998987,244.214405 341.997,244.237878 L341.997,246.283333 L341.987,246.283333 L341.986667,246.283333 C341.989283,250.111571 339.127966,253.336639 335.326667,253.79 L335.326667,256.323333 L338.466667,256.323333 L338.466667,256.333988 C338.477724,256.333553 338.488836,256.333333 338.5,256.333333 C338.960237,256.333333 339.333333,256.706429 339.333333,257.166667 C339.333333,257.626904 338.960237,258 338.5,258 C338.488836,258 338.477724,257.99978 338.466667,257.999346 Z M338.993333,244.88 C338.993333,245.383333 338.993333,245.913333 338.966667,246.416667 C338.946196,246.870565 338.876908,247.320939 338.76,247.76 C338.49913,248.681563 337.942858,249.491965 337.176667,250.066667 C335.605129,251.306608 333.388205,251.306608 331.816667,250.066667 C331.048483,249.493744 330.491522,248.682681 330.232667,247.76 C330.115221,247.321062 330.046034,246.870618 330.026333,246.416667 C329.997333,245.913333 330,245.383333 330,244.88 L330,240.666667 C330,240.166667 330.002667,237.956667 330,237.583333 C330.013174,237.126705 330.091752,236.674324 330.233333,236.24 C330.766973,234.326307 332.510296,233.002605 334.497,233.002605 C336.483704,233.002605 338.227027,234.326307 338.760667,236.24 C338.885984,236.678208 338.964204,237.128533 338.994,237.583333 C339.024,238.086667 338.994,240.166667 338.994,240.666667 L338.994,244.88 L338.993333,244.88 Z M337.326667,245.666667 C337.326667,245.986667 337.32,246.093333 337.3,246.413333 C337.288497,246.703915 337.244899,246.992334 337.17,247.273333 C337.010358,247.86332 336.662815,248.38522 336.18,248.76 C335.190723,249.528898 333.805943,249.528898 332.816667,248.76 C332.331979,248.386321 331.983072,247.864131 331.823333,247.273333 C331.750049,246.992001 331.706478,246.703757 331.693333,246.413333 C331.676667,246.093333 331.673333,245.986667 331.673333,245.666667 C331.673333,241.233333 331.653333,237.946667 331.68,237.593333 C331.699282,237.302639 331.747294,237.014568 331.823333,236.733333 C331.983072,236.142536 332.331979,235.620346 332.816667,235.246667 C333.805943,234.477769 335.190723,234.477769 336.18,235.246667 C336.662815,235.621446 337.010358,236.143346 337.17,236.733333 C337.254678,237.013273 337.308333,237.301671 337.33,237.593333 C337.353333,237.973333 337.326667,241.22 337.326667,245.666667 Z" id="Dictation"></path>
            </g>
        </g>
    </g>
</svg>