<?xml version="1.0" encoding="UTF-8"?>
<svg width="15px" height="10px" viewBox="0 0 15 10" version="1.1" xmlns="http://www.w3.org/2000/svg" xmlns:xlink="http://www.w3.org/1999/xlink">
    <!-- Generator: Sketch 46.2 (44496) - http://www.bohemiancoding.com/sketch -->
    <title>Mobile Signal</title>
    <desc>Created with Sketch.</desc>
    <defs></defs>
    <g id="Symbols" stroke="none" stroke-width="1" fill="none" fill-rule="evenodd">
        <g id="Bars/Status-Bar/Dark-Status-Bar" transform="translate(-7.000000, -5.000000)" fill="#FFFFFF">
            <g id="Left-Detail" transform="translate(7.000000, 5.000000)">
                <path d="M12,0.497385584 C12,0.222687111 12.2307129,0 12.5059123,0 L13.9940877,0 C14.2734953,0 14.5,0.216270149 14.5,0.497385584 L14.5,9.00261442 C14.5,9.27731289 14.2692871,9.5 13.9940877,9.5 L12.5059123,9.5 C12.2265047,9.5 12,9.28372985 12,9.00261442 L12,0.497385584 Z M8,3.00342274 C8,2.72539004 8.23071289,2.5 8.5059123,2.5 L9.9940877,2.5 C10.2734953,2.5 10.5,2.73290253 10.5,3.00342274 L10.5,8.99657726 C10.5,9.27460996 10.2692871,9.5 9.9940877,9.5 L8.5059123,9.5 C8.22650465,9.5 8,9.26709747 8,8.99657726 L8,3.00342274 Z M4,4.99769878 C4,4.72282734 4.23071289,4.5 4.5059123,4.5 L5.9940877,4.5 C6.27349535,4.5 6.5,4.71484375 6.5,4.99769878 L6.5,9.00230122 C6.5,9.27717266 6.26928711,9.5 5.9940877,9.5 L4.5059123,9.5 C4.22650465,9.5 4,9.28515625 4,9.00230122 L4,4.99769878 Z M0,6.99538898 C0,6.7217932 0.230712891,6.5 0.505912304,6.5 L1.9940877,6.5 C2.27349535,6.5 2.5,6.7157526 2.5,6.99538898 L2.5,9.00461102 C2.5,9.2782068 2.26928711,9.5 1.9940877,9.5 L0.505912304,9.5 C0.226504654,9.5 0,9.2842474 0,9.00461102 L0,6.99538898 Z" id="Mobile-Signal"></path>
            </g>
        </g>
    </g>
</svg>