<?xml version="1.0" encoding="UTF-8"?>
<svg width="25px" height="11px" viewBox="0 0 25 11" version="1.1" xmlns="http://www.w3.org/2000/svg" xmlns:xlink="http://www.w3.org/1999/xlink">
    <!-- Generator: Sketch 46.2 (44496) - http://www.bohemiancoding.com/sketch -->
    <title>Battery</title>
    <desc>Created with Sketch.</desc>
    <defs></defs>
    <g id="Symbols" stroke="none" stroke-width="1" fill="none" fill-rule="evenodd">
        <g id="Bars/Status-Bar/Dark-Status-Bar" transform="translate(-346.000000, -5.000000)" fill="#FFFFFF">
            <g id="Right-Detail" transform="translate(302.000000, 3.000000)">
                <g id="Battery" transform="translate(44.000000, 2.000000)">
                    <path d="M0,2.50167155 C0,1.1200365 1.12122893,0 2.50226064,0 L19.4977394,0 C20.8796998,0 22,1.12368393 22,2.50167155 L22,7.99832845 C22,9.3799635 20.8826652,10.5 19.5090859,10.5 L20.9595844,10.5 C19.5838905,10.5 17.3411737,10.5 15.9779032,10.5 L2.49076705,10.5 C1.11515439,10.5 0,9.37631607 0,7.99832845 L0,2.50167155 Z M2.5,1 L2.5,1 C1.67157288,1 1,1.67157288 1,2.5 L1,2.5 L1,8 C1,8.82842712 1.67157288,9.5 2.5,9.5 L19.5,9.5 C20.3284271,9.5 21,8.82842712 21,8 L21,2.5 C21,1.67157288 20.3284271,1 19.5,1 L19.5,1 L2.5,1 Z" id="Combined-Shape" opacity="0.4"></path>
                    <path d="M23,3.5 C23.8626136,3.7220214 24.5,4.50507154 24.5,5.43699126 C24.5,6.36891097 23.8626136,7.15196112 23,7.37398251 L23,3.5 Z" id="Combined-Shape" fill-opacity="0.4"></path>
                    <rect id="Rectangle-Copy-4" x="2" y="2" width="18" height="6.5" rx="1"></rect>
                </g>
            </g>
        </g>
    </g>
</svg>