<?xml version="1.0" encoding="UTF-8"?>
<svg width="90px" height="90px" viewBox="0 0 90 90" version="1.1" xmlns="http://www.w3.org/2000/svg" xmlns:xlink="http://www.w3.org/1999/xlink">
    <!-- Generator: Sketch 47 (45396) - http://www.bohemiancoding.com/sketch -->
    <title>App Icon Mask</title>
    <desc>Created with Sketch.</desc>
    <defs>
        <path d="M60,18.769 C60,18.052 60,17.336 59.996,16.619 C59.992,16.016 59.985,15.412 59.969,14.809 C59.934,13.494 59.856,12.168 59.623,10.868 C59.386,9.548 58.999,8.32 58.388,7.121 C57.788,5.942 57.005,4.865 56.07,3.93 C55.135,2.996 54.058,2.212 52.879,1.612 C51.681,1.002 50.453,0.615 49.134,0.378 C47.833,0.144 46.507,0.067 45.192,0.031 C44.588,0.015 43.985,0.008 43.381,0.004 C42.665,0 41.948,0 41.231,0 L18.769,0 C18.053,0 17.336,0 16.62,0.004 C16.016,0.008 15.412,0.015 14.809,0.031 C13.494,0.067 12.167,0.144 10.867,0.378 C9.548,0.615 8.32,1.002 7.122,1.612 C5.943,2.212 4.865,2.996 3.931,3.93 C2.996,4.865 2.213,5.942 1.613,7.121 C1.002,8.32 0.615,9.548 0.378,10.868 C0.145,12.168 0.067,13.494 0.032,14.809 C0.016,15.412 0.008,16.016 0.005,16.619 C0,17.336 0,18.052 0,18.769 L0,41.231 C0,41.948 0,42.664 0.005,43.381 C0.008,43.984 0.016,44.588 0.032,45.191 C0.067,46.506 0.145,47.832 0.378,49.132 C0.615,50.452 1.002,51.681 1.613,52.88 C2.213,54.058 2.996,55.135 3.931,56.069 C4.865,57.005 5.943,57.788 7.122,58.388 C8.32,58.998 9.548,59.385 10.867,59.622 C12.167,59.855 13.494,59.934 14.809,59.969 C15.412,59.985 16.016,59.992 16.62,59.996 C17.336,60 18.053,60 18.769,60 L41.231,60 C41.948,60 42.665,60 43.381,59.996 C43.985,59.992 44.588,59.985 45.192,59.969 C46.507,59.934 47.833,59.855 49.134,59.622 C50.453,59.385 51.681,58.998 52.879,58.388 C54.058,57.788 55.135,57.005 56.07,56.069 C57.005,55.135 57.788,54.058 58.388,52.88 C58.999,51.681 59.386,50.452 59.623,49.132 C59.856,47.832 59.934,46.506 59.969,45.191 C59.985,44.588 59.992,43.984 59.996,43.381 C60,42.664 60,41.948 60,41.231 L60,18.769 Z" id="path-1"></path>
        <filter x="-37.5%" y="-37.5%" width="175.0%" height="175.0%" filterUnits="objectBoundingBox" id="filter-3">
            <feOffset dx="0" dy="0" in="SourceAlpha" result="shadowOffsetOuter1"></feOffset>
            <feGaussianBlur stdDeviation="7.5" in="shadowOffsetOuter1" result="shadowBlurOuter1"></feGaussianBlur>
            <feColorMatrix values="0 0 0 0 0   0 0 0 0 0   0 0 0 0 0  0 0 0 0.1 0" type="matrix" in="shadowBlurOuter1"></feColorMatrix>
        </filter>
    </defs>
    <g id="Design-Templates---System" stroke="none" stroke-width="1" fill="none" fill-rule="evenodd">
        <g id="Home-Screen-Quick-Action" transform="translate(-270.000000, -465.000000)">
            <g id="App-Icon" transform="translate(285.000000, 480.000000)">
                <mask id="mask-2" fill="white">
                    <use xlink:href="#path-1"></use>
                </mask>
                <g id="App-Icon-Mask">
                    <use fill="black" fill-opacity="1" filter="url(#filter-3)" xlink:href="#path-1"></use>
                    <use fill="#FFFFFF" fill-rule="evenodd" xlink:href="#path-1"></use>
                </g>
            </g>
        </g>
    </g>
</svg>