<?xml version="1.0" encoding="UTF-8"?>
<svg width="15px" height="25px" viewBox="0 0 15 25" version="1.1" xmlns="http://www.w3.org/2000/svg" xmlns:xlink="http://www.w3.org/1999/xlink">
    <!-- Generator: Sketch 47.1 (45422) - http://www.bohemiancoding.com/sketch -->
    <title>Dictation</title>
    <desc>Created with Sketch.</desc>
    <defs></defs>
    <g id="UI-Elements" stroke="none" stroke-width="1" fill="none" fill-rule="evenodd">
        <g id="UI-Elements---System" transform="translate(-350.000000, -1707.000000)" fill="#E7E7E7">
            <g id="Keyboard-Dark" transform="translate(20.000000, 945.000000)">
                <g id="Keyboard-Alphabetic" transform="translate(0.000000, 521.000000)">
                    <g id="Keys" transform="translate(3.000000, 8.000000)">
                        <path d="M338.466668,257.996732 L338.466668,257.997386 L330.530004,257.997386 L330.530004,257.996856 C330.520048,257.997208 330.510047,257.997386 330.500004,257.997386 C330.039767,257.997386 329.666671,257.62429 329.666671,257.164053 C329.666671,256.703816 330.039767,256.33072 330.500004,256.33072 L330.500004,256.33072 C330.510047,256.33072 330.520048,256.330898 330.530004,256.33125 L330.530004,256.32072 L333.67667,256.32072 L333.67667,253.787388 C329.867271,253.344678 326.995368,250.115758 327.000006,246.280724 C327.000006,246.244057 327.005672,246.210724 327.006339,246.177391 L327.006339,244.267307 C327.002158,244.233477 327.000006,244.199019 327.000006,244.164058 C327.000006,243.703821 327.373102,243.330725 327.833339,243.330725 C328.293576,243.330725 328.666672,243.703821 328.666672,244.164058 C328.666672,244.191785 328.665317,244.219196 328.662672,244.246229 L328.662672,246.540724 L328.658338,246.540724 L328.658338,246.54739 C328.658338,246.57739 328.662338,246.60739 328.662672,246.63739 L328.662672,246.950724 L328.678338,246.950724 C328.926037,249.914424 331.35142,252.224381 334.32367,252.327388 L334.660336,252.327388 C337.633537,252.226079 340.060252,249.915399 340.307001,246.950724 L340.327001,246.950724 L340.327001,244.174058 L340.333392,244.174014 C340.333353,244.1707 340.333334,244.167381 340.333334,244.164058 C340.333334,243.703821 340.70643,243.330725 341.166667,243.330725 C341.626904,243.330725 342,243.703821 342,244.164058 C342,244.188045 341.998987,244.211796 341.997,244.235269 L341.997,246.280724 L341.987,246.280724 L341.986667,246.280724 C341.989283,250.10896 339.127967,253.334027 335.326669,253.787388 L335.326669,256.32072 L338.466668,256.32072 L338.466668,256.331375 C338.477725,256.33094 338.488838,256.33072 338.500001,256.33072 C338.960238,256.33072 339.333334,256.703816 339.333334,257.164053 C339.333334,257.62429 338.960238,257.997386 338.500001,257.997386 C338.488838,257.997386 338.477725,257.997167 338.466668,257.996732 Z M338.993334,244.877391 C338.993334,245.380724 338.993334,245.910724 338.966668,246.414057 C338.946198,246.867955 338.876909,247.318329 338.760001,247.75739 C338.499132,248.678952 337.942859,249.489354 337.176668,250.064056 C335.605131,251.303996 333.388208,251.303996 331.81667,250.064056 C331.048487,249.491133 330.491526,248.680071 330.232671,247.75739 C330.115226,247.318453 330.046039,246.868008 330.026338,246.414057 C329.997338,245.910724 330.000004,245.380724 330.000004,244.877391 L330.000004,240.664059 C330.000004,240.164059 330.002671,237.95406 330.000004,237.580727 C330.013179,237.124099 330.091756,236.671718 330.233338,236.237394 C330.766977,234.323702 332.5103,233 334.497003,233 C336.483706,233 338.227028,234.323702 338.760668,236.237394 C338.885985,236.675602 338.964205,237.125927 338.994001,237.580727 C339.024001,238.08406 338.994001,240.164059 338.994001,240.664059 L338.994001,244.877391 L338.993334,244.877391 Z" id="Dictation"></path>
                    </g>
                </g>
            </g>
        </g>
    </g>
</svg>