<?xml version="1.0" encoding="UTF-8"?>
<svg width="27px" height="27px" viewBox="0 0 27 27" version="1.1" xmlns="http://www.w3.org/2000/svg" xmlns:xlink="http://www.w3.org/1999/xlink">
    <!-- Generator: Sketch 47.1 (45422) - http://www.bohemiancoding.com/sketch -->
    <title>Emoji</title>
    <desc>Created with Sketch.</desc>
    <defs></defs>
    <g id="Symbols" stroke="none" stroke-width="1" fill="none" fill-rule="evenodd">
        <g id="System/Light-Keyboard-Alphabetic" transform="translate(-24.000000, -240.000000)" fill="#50555C">
            <g id="Keys" transform="translate(3.000000, 8.000000)">
                <path d="M34.75,232 C42.0677729,232 48,237.932227 48,245.25 C48,252.567773 42.0677729,258.5 34.75,258.5 C27.4322271,258.5 21.5,252.567773 21.5,245.25 C21.5,237.932227 27.4322271,232 34.75,232 Z M34.75,233.543625 C41.2150799,233.544357 46.4555378,238.785803 46.45505,245.250883 C46.4545621,251.715963 41.2133133,256.956619 34.7482334,256.956375 C28.2831535,256.956131 23.0423,251.71508 23.0423,245.25 C23.0423878,242.145074 24.2759446,239.167362 26.4715833,236.971971 C28.667222,234.776581 31.6450737,233.543361 34.75,233.543625 L34.75,233.543625 Z M30.5583625,239.502812 C30.14882,239.497933 29.7544257,239.657489 29.4634794,239.945758 C29.1725331,240.234027 29.0093379,240.62693 29.0104312,241.0365 C29.0104312,241.891399 29.7034637,242.584431 30.5583625,242.584431 C31.4132613,242.584431 32.1062938,241.891399 32.1062938,241.0365 C32.1073871,240.62693 31.9441919,240.234027 31.6532456,239.945758 C31.3622993,239.657489 30.967905,239.497933 30.5583625,239.502813 L30.5583625,239.502812 Z M43.5801312,247.532312 C42.8745688,251.345 39.1947125,254.528312 34.7483437,254.528312 C30.3374187,254.528312 26.6790937,251.391375 25.932125,247.62175 C25.7807438,246.681 26.5512313,246.459062 27.277,246.634625 C29.7049194,247.336643 32.2228025,247.678165 34.75,247.64825 C37.2714848,247.677485 39.783647,247.337099 42.2064375,246.637937 C42.912,246.459063 43.6675812,246.661125 43.5801312,247.532312 L43.5801312,247.532312 Z M41.1848625,248.062312 C41.1159625,248.088812 41.0460688,248.108687 40.9755125,248.131875 C40.968225,248.135187 41.201425,248.059 41.1944688,248.062312 C39.0994129,248.639068 36.93378,248.918944 34.7609313,248.89375 C32.1679063,248.89375 29.848825,248.605562 28.2528625,248.0325 C27.0958063,247.688 27.3177438,249.049437 28.1309625,249.466812 C30.2113906,250.413917 32.4748865,250.89118 34.7606,250.864687 C37.4795,250.864687 39.9022625,250.232 41.5025313,249.413812 C42.2597688,248.926875 42.4094938,247.62175 41.1848625,248.062312 L41.1848625,248.062312 Z M38.95025,239.502812 C38.5406773,239.497934 38.1462495,239.65748 37.8552509,239.945739 C37.5642522,240.233998 37.400983,240.626899 37.4019875,241.0365 C37.393818,241.594979 37.6870838,242.114566 38.1694248,242.39619 C38.6517659,242.677814 39.2484029,242.677814 39.7307439,242.39619 C40.213085,242.114566 40.5063508,241.594979 40.4981813,241.0365 C40.4991846,240.626958 40.3359607,240.234108 40.0450342,239.945858 C39.7541076,239.657609 39.3597657,239.498023 38.95025,239.502813 L38.95025,239.502812 Z" id="Emoji"></path>
            </g>
        </g>
    </g>
</svg>