<?xml version="1.0" encoding="UTF-8"?>
<svg width="22px" height="22px" viewBox="0 0 22 22" version="1.1" xmlns="http://www.w3.org/2000/svg" xmlns:xlink="http://www.w3.org/1999/xlink">
    <!-- Generator: Sketch 47.1 (45422) - http://www.bohemiancoding.com/sketch -->
    <title>Add</title>
    <desc>Created with Sketch.</desc>
    <defs></defs>
    <g id="Symbols" stroke="none" stroke-width="1" fill="none" fill-rule="evenodd">
        <g id="Controls/Buttons/Dark-Add" transform="translate(-11.000000, -11.000000)" fill="#FF9500">
            <path d="M22,11 C28.0751322,11 33,15.9248678 33,22 C33,28.0751322 28.0751322,33 22,33 C15.9248678,33 11,28.0751322 11,22 C11,15.9248678 15.9248678,11 22,11 L22,11 Z M22,12 C27.5228475,12 32,16.4771525 32,22 C32,27.5228475 27.5228475,32 22,32 C16.4771525,32 12,27.5228475 12,22 C12,16.4771525 16.4771525,12 22,12 L22,12 Z M27.5,22.5 L22.5,22.5 L22.5,27.5 L21.5,27.5 L21.5,22.5 L16.5,22.5 L16.5,21.5 L21.5,21.5 L21.5,16.5 L22.5,16.5 L22.5,21.5 L27.5,21.5 L27.5,22.5 Z" id="Add"></path>
        </g>
    </g>
</svg>