<?xml version="1.0" encoding="UTF-8"?>
<svg width="60px" height="60px" viewBox="0 0 60 60" version="1.1" xmlns="http://www.w3.org/2000/svg" xmlns:xlink="http://www.w3.org/1999/xlink">
    <!-- Generator: Sketch 47.1 (45422) - http://www.bohemiancoding.com/sketch -->
    <title>app icon</title>
    <desc>Created with Sketch.</desc>
    <defs></defs>
    <g id="UI-Elements" stroke="none" stroke-width="1" fill="none" fill-rule="evenodd">
        <g id="UI-Elements---Views" transform="translate(-1470.000000, -605.000000)" fill="#FFFFFF">
            <g id="Activity-View" transform="translate(1205.000000, 120.000000)">
                <g id="Actions" transform="translate(25.000000, 485.000000)">
                    <path d="M300,18.769 C300,18.052 300,17.336 299.996,16.619 C299.992,16.016 299.985,15.412 299.969,14.809 C299.934,13.494 299.856,12.168 299.623,10.868 C299.386,9.548 298.999,8.32 298.388,7.121 C297.788,5.942 297.005,4.865 296.07,3.93 C295.135,2.996 294.058,2.212 292.879,1.612 C291.681,1.002 290.453,0.615 289.134,0.378 C287.833,0.144 286.507,0.067 285.192,0.031 C284.588,0.015 283.985,0.008 283.381,0.004 C282.665,0 281.948,0 281.231,0 L258.769,0 C258.053,0 257.336,0 256.62,0.004 C256.016,0.008 255.412,0.015 254.809,0.031 C253.494,0.067 252.167,0.144 250.867,0.378 C249.548,0.615 248.32,1.002 247.122,1.612 C245.943,2.212 244.865,2.996 243.931,3.93 C242.996,4.865 242.213,5.942 241.613,7.121 C241.002,8.32 240.615,9.548 240.378,10.868 C240.145,12.168 240.067,13.494 240.032,14.809 C240.016,15.412 240.008,16.016 240.005,16.619 C240,17.336 240,18.052 240,18.769 L240,41.231 C240,41.948 240,42.664 240.005,43.381 C240.008,43.984 240.016,44.588 240.032,45.191 C240.067,46.506 240.145,47.832 240.378,49.132 C240.615,50.452 241.002,51.681 241.613,52.88 C242.213,54.058 242.996,55.135 243.931,56.069 C244.865,57.005 245.943,57.788 247.122,58.388 C248.32,58.998 249.548,59.385 250.867,59.622 C252.167,59.855 253.494,59.934 254.809,59.969 C255.412,59.985 256.016,59.992 256.62,59.996 C257.336,60 258.053,60 258.769,60 L281.231,60 C281.948,60 282.665,60 283.381,59.996 C283.985,59.992 284.588,59.985 285.192,59.969 C286.507,59.934 287.833,59.855 289.134,59.622 C290.453,59.385 291.681,58.998 292.879,58.388 C294.058,57.788 295.135,57.005 296.07,56.069 C297.005,55.135 297.788,54.058 298.388,52.88 C298.999,51.681 299.386,50.452 299.623,49.132 C299.856,47.832 299.934,46.506 299.969,45.191 C299.985,44.588 299.992,43.984 299.996,43.381 C300,42.664 300,41.948 300,41.231 L300,18.769 Z" id="app-icon"></path>
                </g>
            </g>
        </g>
    </g>
</svg>