<?xml version="1.0" encoding="UTF-8"?>
<svg width="15px" height="10px" viewBox="0 0 15 10" version="1.1" xmlns="http://www.w3.org/2000/svg" xmlns:xlink="http://www.w3.org/1999/xlink">
    <!-- Generator: Sketch 47.1 (45422) - http://www.bohemiancoding.com/sketch -->
    <title>Wifi</title>
    <desc>Created with Sketch.</desc>
    <defs></defs>
    <g id="Page-1" stroke="none" stroke-width="1" fill="none" fill-rule="evenodd">
        <g id="iPhone-8" transform="translate(-26.000000, -5.000000)" fill="#030303">
            <g id="Group">
                <g id="Status-Bar" transform="translate(6.000000, 3.000000)">
                    <g id="Left-Detail" transform="translate(0.000000, 2.000000)">
                        <path d="M29.8093762,7.70944924 L27.5242729,10 L25.1955625,7.67257522 C25.7530794,7.03492681 26.5727771,6.63212435 27.4866063,6.63212435 C28.4179279,6.63212435 29.2514796,7.05049506 29.8093762,7.70944924 Z M27.4866063,3.31606218 C29.3323186,3.31606218 30.9943778,4.10193959 32.156073,5.35715828 L30.8389893,6.65999985 C29.9785374,5.70322843 28.8899885,5.23815918 27.5014895,5.23815918 C26.129581,5.23815918 25.0185855,5.72307857 24.1593018,6.65999985 L22.8469059,5.3252151 C24.0071361,4.08862104 25.6566009,3.31606218 27.4866063,3.31606218 Z M27.4866063,0 C30.2467676,0 32.7370314,1.15492968 34.5,3.0076437 L33.1800003,4.38000011 C31.7175507,2.82609274 29.7895413,1.96000004 27.4866063,1.96000004 C25.1984992,1.96000004 23.3808679,2.81358054 21.9199982,4.35000038 L20.5,2.97960479 C22.2613611,1.1432845 24.7403957,0 27.4866063,0 Z" id="Wifi"></path>
                    </g>
                </g>
            </g>
        </g>
    </g>
</svg>