<?xml version="1.0" encoding="UTF-8"?>
<svg width="27px" height="26px" viewBox="0 0 27 26" version="1.1" xmlns="http://www.w3.org/2000/svg" xmlns:xlink="http://www.w3.org/1999/xlink">
    <!-- Generator: Sketch 46.2 (44496) - http://www.bohemiancoding.com/sketch -->
    <title>Favorites</title>
    <desc>Created with Sketch.</desc>
    <defs></defs>
    <g id="Symbols" stroke="none" stroke-width="1" fill="none" fill-rule="evenodd">
        <g id="Bars/Tabbar/Light-3-Tabs" transform="translate(-174.000000, -6.000000)" fill="#8E8E93">
            <g id="Tab-2" transform="translate(164.000000, 0.000000)">
                <g id="↳-Icon" transform="translate(10.000000, 6.000000)">
                    <path d="M25.9539643,8.90163402 L18.0496227,8.90163402 C17.5769371,8.90423041 17.1558005,8.60359122 17.0047097,8.15569616 L14.5699126,0.746813335 C14.4170427,0.300118362 13.9971284,0 13.5249996,0 C13.0528708,0 12.6329566,0.300118362 12.4800867,0.746813335 L10.0452895,8.15569616 C9.89419877,8.60359122 9.47306211,8.90423041 9.00037653,8.90163402 L1.09603498,8.90163402 C0.626391411,8.89109543 0.204605723,9.18757975 0.0555035821,9.63305107 C-0.0935985591,10.0785224 0.0647276498,10.5691739 0.446089125,10.8434723 L6.86055478,15.4520883 C7.23954868,15.7212406 7.39955874,16.2055242 7.25552188,16.6474888 L4.81072554,24.0893688 C4.70565598,24.4213337 4.76669962,24.7835751 4.97476007,25.0627724 C5.18282052,25.3419697 5.51249025,25.5040285 5.86063808,25.4982515 C6.09280047,25.4971693 6.3186269,25.422419 6.50558435,25.2847693 L12.8750538,20.7091504 C13.2637737,20.4311921 13.7862255,20.4311921 14.1749455,20.7091504 L20.5444149,25.2847693 C20.7313723,25.422419 20.9571988,25.4971693 21.1893612,25.4982515 C21.537509,25.5040285 21.8671787,25.3419697 22.0752392,25.0627724 C22.2832996,24.7835751 22.3443433,24.4213337 22.2392737,24.0893688 L19.7944774,16.6474888 C19.6504405,16.2055242 19.8104506,15.7212406 20.1894445,15.4520883 L26.6039101,10.8434723 C26.9852716,10.5691739 27.1435978,10.0785224 26.9944957,9.63305107 C26.8453935,9.18757975 26.4236078,8.89109543 25.9539643,8.90163402 L25.9539643,8.90163402 Z" id="Favorites"></path>
                </g>
            </g>
        </g>
    </g>
</svg>