<?xml version="1.0" encoding="UTF-8"?>
<svg width="22px" height="22px" viewBox="0 0 22 22" version="1.1" xmlns="http://www.w3.org/2000/svg" xmlns:xlink="http://www.w3.org/1999/xlink">
    <!-- Generator: Sketch 47.1 (45422) - http://www.bohemiancoding.com/sketch -->
    <title>Combined Shape</title>
    <desc>Created with Sketch.</desc>
    <defs></defs>
    <g id="Symbols" stroke="none" stroke-width="1" fill="none" fill-rule="evenodd">
        <g id="Controls/Buttons/Dark-Info" transform="translate(-11.000000, -11.000000)" fill-rule="nonzero" fill="#FF9500">
            <path d="M22,32 C27.5228475,32 32,27.5228475 32,22 C32,16.4771525 27.5228475,12 22,12 C16.4771525,12 12,16.4771525 12,22 C12,27.5228475 16.4771525,32 22,32 Z M22,33 C15.9248678,33 11,28.0751322 11,22 C11,15.9248678 15.9248678,11 22,11 C28.0751322,11 33,15.9248678 33,22 C33,28.0751322 28.0751322,33 22,33 Z M21.75,18.5 C21.0595,18.5 20.5,17.9405 20.5,17.25 C20.5,16.5595 21.0595,16 21.75,16 C22.4405,16 23,16.5595 23,17.25 C23,17.9405 22.4405,18.5 21.75,18.5 Z M20,28.5 L20,28 L21,28 L21,20.5 L20,20.5 L20,20 L21,20 L23,20 L23,20.5 L23,28 L24,28 L24,28.5 L20,28.5 Z" id="Combined-Shape"></path>
        </g>
    </g>
</svg>