<?xml version="1.0" encoding="UTF-8"?>
<svg width="11px" height="18px" viewBox="0 0 11 18" version="1.1" xmlns="http://www.w3.org/2000/svg" xmlns:xlink="http://www.w3.org/1999/xlink">
    <!-- Generator: Sketch 47.1 (45422) - http://www.bohemiancoding.com/sketch -->
    <title>Combined Shape</title>
    <desc>Created with Sketch.</desc>
    <defs></defs>
    <g id="iPhone-SE---Landscape" stroke="none" stroke-width="1" fill="none" fill-rule="evenodd">
        <g id="iPhone-SE" transform="translate(-2.000000, -6.000000)" fill="#007AFF">
            <path d="M10.4632717,6.4159329 C10.7326204,6.15827453 11.0978267,6 11.5,6 C12.3284271,6 13,6.67157288 13,7.5 C13,7.94011564 12.8104525,8.33596009 12.5085379,8.61035287 L12.5098877,8.61180115 L6.03216553,14.987793 L12.4775958,21.3622896 C12.7974454,21.6373775 13,22.0450342 13,22.5 C13,23.3284271 12.3284271,24 11.5,24 C11.0983325,24 10.733539,23.8421233 10.4642885,23.5850388 L10.4629364,23.5864868 L2.3374397,15.749024 C2.31595792,15.7300077 2.29530019,15.7100815 2.27552688,15.6893058 L2.27011108,15.684082 L2.27011108,15.6835707 C2.1025817,15.5047624 2,15.2643608 2,15 C2,14.7356392 2.1025817,14.4952376 2.27011108,14.3164293 L2.27011108,14.3153381 L2.2832458,14.3026733 C2.29815066,14.2873558 2.31354215,14.2725145 2.32939546,14.2581744 L10.4629364,6.41557312 L10.4632717,6.4159329 Z" id="Combined-Shape"></path>
        </g>
    </g>
</svg>