<?xml version="1.0" encoding="UTF-8"?>
<svg width="12px" height="13px" viewBox="0 0 12 13" version="1.1" xmlns="http://www.w3.org/2000/svg" xmlns:xlink="http://www.w3.org/1999/xlink">
    <!-- Generator: Sketch 47.1 (45422) - http://www.bohemiancoding.com/sketch -->
    <title>backArrow</title>
    <desc>Created with Sketch.</desc>
    <defs></defs>
    <g id="Page-1" stroke="none" stroke-width="1" fill="none" fill-rule="evenodd">
        <g id="iPhone-8" transform="translate(-4.000000, -4.000000)" fill="#000000">
            <g id="Status-Bar---Back" transform="translate(4.000000, 3.000000)">
                <path d="M11.9960013,10.0237897 L11.9960013,10.4237564 C11.9960013,10.535747 11.9960013,10.6472377 11.991003,10.7592284 C11.988015,11.0036366 11.9666283,11.2474726 11.9270243,11.4886676 C11.8857911,11.7300527 11.8088033,11.9639386 11.6986005,12.1826098 C11.4749905,12.6218072 11.118028,12.9788589 10.6789404,13.2025248 C10.4604861,13.312722 10.2268284,13.3897286 9.98567144,13.4310057 C9.74437379,13.4706597 9.50042955,13.4920519 9.2559147,13.4950004 C9.14395202,13.4980002 9.03248917,13.4995 8.92052649,13.5 L8.52065978,13.5 L3.47234255,13.5 L3.07247584,13.5 C2.96051316,13.5 2.84905032,13.5 2.73708764,13.4950004 C2.49257278,13.4920519 2.24862855,13.4706597 2.00733089,13.4310057 C1.76617214,13.3897359 1.5325134,13.3127289 1.31406198,13.2025248 C0.874994749,12.9788308 0.518039963,12.6217868 0.294401866,12.1826098 C0.184192176,11.9639415 0.107203982,11.7300545 0.0659780073,11.4886676 C0.0263834639,11.2474714 0.0049968169,11.0036361 0.00199933356,10.7592284 C0.00299900033,10.6452379 0,10.5332472 0,10.4217565 L0,10.0217899 L0,4.97221065 L0,4.57224398 C0,4.46025331 0,4.3487626 0.00499833389,4.23677194 C0.00799581723,3.99236422 0.0293824642,3.74852892 0.0689770077,3.50733272 C0.111472076,3.2675277 0.189293242,3.03535373 0.299900033,2.81839013 C0.523566243,2.37923357 0.880513339,2.02219725 1.31956015,1.79847513 C1.53801442,1.68827795 1.77167211,1.61127127 2.01282906,1.56999417 C2.25412884,1.5303572 2.4980718,1.50896508 2.7425858,1.5059995 C2.85304898,1.50299975 2.96501166,1.5 3.07647451,1.5 L3.47634122,1.5 L8.52465845,1.5 L8.92452516,1.5 C9.03648784,1.5 9.14795068,1.5 9.25991336,1.50499958 C9.50442737,1.50796516 9.74837032,1.52935729 9.98967011,1.56899425 C10.2308253,1.6102786 10.4644819,1.68728493 10.682939,1.79747521 C11.1220063,2.02116921 11.478961,2.37821323 11.7025991,2.81739022 C11.8128019,3.03606139 11.8897898,3.26994726 11.931023,3.51133239 C11.9706269,3.75252741 11.9920136,3.99636342 11.9950017,4.2407716 C11.9980007,4.35226231 11.9995002,4.46425298 12,4.57624365 L12,4.97621032 L12,10.0257895 L11.9960013,10.0237897 Z M6.88370543,3.60882426 L2.99900033,7.49950004 L6.8592136,11.3561787 L7.88187271,10.3872594 L4.99833389,7.49950004 L7.91986005,4.57224398 L6.88370543,3.60882426 Z" id="backArrow"></path>
            </g>
        </g>
    </g>
</svg>